<mxfile host="app.diagrams.net" agent="Mozilla/5.0 (Windows NT 10.0; Win64; x64) AppleWebKit/537.36 (KHTML, like Gecko) Chrome/108.0.0.0 Safari/537.36" version="26.0.6">
  <diagram name="Page-1" id="90a13364-a465-7bf4-72fc-28e22215d7a0">
    <mxGraphModel dx="1793" dy="924" grid="1" gridSize="10" guides="1" tooltips="1" connect="1" arrows="1" fold="1" page="1" pageScale="1.5" pageWidth="1169" pageHeight="827" background="none" math="0" shadow="0">
      <root>
        <mxCell id="0" style=";html=1;" />
        <mxCell id="1" style=";html=1;" parent="0" />
        <mxCell id="jQQxH6LwXFBK_Qau7PEY-23" value="PC_Controller" style="whiteSpace=wrap;html=1;shadow=1;fontSize=18;fillColor=#f5f5f5;strokeColor=#666666;" parent="1" vertex="1">
          <mxGeometry x="173.85" y="272" width="120" height="140" as="geometry" />
        </mxCell>
        <mxCell id="7fQUANpCW0_2PBthWF22-49" value="" style="shape=waypoint;sketch=0;size=6;pointerEvents=1;points=[];fillColor=none;resizable=0;rotatable=0;perimeter=centerPerimeter;snapToPoint=1;" parent="1" vertex="1">
          <mxGeometry x="1383.91" y="752" width="20" height="20" as="geometry" />
        </mxCell>
        <mxCell id="BtpwSkirMHUlfhhFMKDF-21" style="edgeStyle=orthogonalEdgeStyle;rounded=0;orthogonalLoop=1;jettySize=auto;html=1;entryX=0;entryY=0.5;entryDx=0;entryDy=0;jumpStyle=arc;" parent="1" source="F4LApp7SRapzV72RJLrX-73" target="BtpwSkirMHUlfhhFMKDF-3" edge="1">
          <mxGeometry relative="1" as="geometry">
            <Array as="points">
              <mxPoint x="1178.91" y="312" />
              <mxPoint x="1178.91" y="62" />
            </Array>
          </mxGeometry>
        </mxCell>
        <mxCell id="JPoRV0-0kWKYk73e9sCu-6" style="edgeStyle=orthogonalEdgeStyle;rounded=0;orthogonalLoop=1;jettySize=auto;html=1;entryX=0;entryY=0.5;entryDx=0;entryDy=0;" parent="1" source="_H_bEt4n4NwgmmSnS2Ty-18" target="BtpwSkirMHUlfhhFMKDF-7" edge="1">
          <mxGeometry relative="1" as="geometry">
            <Array as="points">
              <mxPoint x="1323.91" y="833" />
              <mxPoint x="1323.91" y="112" />
            </Array>
          </mxGeometry>
        </mxCell>
        <mxCell id="LOUQa-txSwxVZWsO9tRF-3" style="edgeStyle=orthogonalEdgeStyle;rounded=0;orthogonalLoop=1;jettySize=auto;html=1;entryX=0;entryY=0.5;entryDx=0;entryDy=0;exitX=1;exitY=0.5;exitDx=0;exitDy=0;jumpStyle=arc;" parent="1" source="LOUQa-txSwxVZWsO9tRF-1" target="QWSBbdvPpNymhQ5q6x3e-17" edge="1">
          <mxGeometry relative="1" as="geometry">
            <Array as="points">
              <mxPoint x="803.91" y="293" />
              <mxPoint x="803.91" y="582" />
              <mxPoint x="623.91" y="582" />
              <mxPoint x="623.91" y="902" />
              <mxPoint x="763.91" y="902" />
            </Array>
          </mxGeometry>
        </mxCell>
        <mxCell id="_H_bEt4n4NwgmmSnS2Ty-8" style="edgeStyle=orthogonalEdgeStyle;rounded=0;orthogonalLoop=1;jettySize=auto;html=1;entryX=0;entryY=0.5;entryDx=0;entryDy=0;" parent="1" source="_H_bEt4n4NwgmmSnS2Ty-7" target="_H_bEt4n4NwgmmSnS2Ty-3" edge="1">
          <mxGeometry relative="1" as="geometry">
            <Array as="points">
              <mxPoint x="913.91" y="1162" />
              <mxPoint x="913.91" y="952" />
              <mxPoint x="1043.91" y="952" />
              <mxPoint x="1043.91" y="922" />
            </Array>
          </mxGeometry>
        </mxCell>
        <mxCell id="_H_bEt4n4NwgmmSnS2Ty-23" style="edgeStyle=orthogonalEdgeStyle;rounded=0;orthogonalLoop=1;jettySize=auto;html=1;entryX=1;entryY=0.5;entryDx=0;entryDy=0;jumpStyle=arc;" parent="1" target="_H_bEt4n4NwgmmSnS2Ty-18" edge="1">
          <mxGeometry relative="1" as="geometry">
            <mxPoint x="820.91" y="1146" as="sourcePoint" />
            <mxPoint x="1513.91" y="147" as="targetPoint" />
          </mxGeometry>
        </mxCell>
        <mxCell id="09E98BjTh2XKiK8LabDe-4" style="edgeStyle=orthogonalEdgeStyle;rounded=0;orthogonalLoop=1;jettySize=auto;html=1;entryX=1;entryY=0.5;entryDx=0;entryDy=0;fontSize=12;startSize=8;endSize=8;jumpStyle=arc;" parent="1" source="09E98BjTh2XKiK8LabDe-3" target="_H_bEt4n4NwgmmSnS2Ty-25" edge="1">
          <mxGeometry relative="1" as="geometry">
            <Array as="points">
              <mxPoint x="1353.91" y="1132" />
              <mxPoint x="873.91" y="1132" />
              <mxPoint x="873.91" y="1112" />
            </Array>
          </mxGeometry>
        </mxCell>
        <mxCell id="JPoRV0-0kWKYk73e9sCu-21" value="to MemC" style="edgeLabel;html=1;align=center;verticalAlign=middle;resizable=0;points=[];" parent="09E98BjTh2XKiK8LabDe-4" vertex="1" connectable="0">
          <mxGeometry x="-0.8666" y="2" relative="1" as="geometry">
            <mxPoint x="-2" y="-3" as="offset" />
          </mxGeometry>
        </mxCell>
        <mxCell id="_H_bEt4n4NwgmmSnS2Ty-14" style="edgeStyle=orthogonalEdgeStyle;rounded=0;orthogonalLoop=1;jettySize=auto;html=1;entryX=1;entryY=0.5;entryDx=0;entryDy=0;jumpStyle=arc;exitX=1;exitY=0.5;exitDx=0;exitDy=0;" parent="1" source="_H_bEt4n4NwgmmSnS2Ty-13" target="_H_bEt4n4NwgmmSnS2Ty-5" edge="1">
          <mxGeometry relative="1" as="geometry">
            <Array as="points">
              <mxPoint x="1163.91" y="1002" />
              <mxPoint x="1163.91" y="1122" />
              <mxPoint x="923.91" y="1122" />
              <mxPoint x="923.91" y="1092" />
            </Array>
          </mxGeometry>
        </mxCell>
        <mxCell id="_H_bEt4n4NwgmmSnS2Ty-11" value="" style="group" parent="1" vertex="1" connectable="0">
          <mxGeometry x="1063.91" y="892" width="90" height="140" as="geometry" />
        </mxCell>
        <mxCell id="o8jE4zu5w3KYZrWDI-N--39" value="&lt;div&gt;&lt;br&gt;&lt;/div&gt;&lt;div&gt;D. Cache&lt;/div&gt;" style="whiteSpace=wrap;html=1;shadow=1;fontSize=18;fillColor=#f5f5f5;strokeColor=#666666;container=0;" parent="_H_bEt4n4NwgmmSnS2Ty-11" vertex="1">
          <mxGeometry width="90" height="120" as="geometry" />
        </mxCell>
        <mxCell id="o8jE4zu5w3KYZrWDI-N--41" value="DC_Addr" style="text;html=1;align=left;verticalAlign=middle;whiteSpace=wrap;rounded=0;container=0;" parent="_H_bEt4n4NwgmmSnS2Ty-11" vertex="1">
          <mxGeometry width="45" height="20" as="geometry" />
        </mxCell>
        <mxCell id="_H_bEt4n4NwgmmSnS2Ty-3" value="D.U_Addr" style="text;html=1;align=left;verticalAlign=middle;whiteSpace=wrap;rounded=0;" parent="_H_bEt4n4NwgmmSnS2Ty-11" vertex="1">
          <mxGeometry y="20" width="45" height="20" as="geometry" />
        </mxCell>
        <mxCell id="_H_bEt4n4NwgmmSnS2Ty-4" value="D.U_Data" style="text;html=1;align=left;verticalAlign=middle;whiteSpace=wrap;rounded=0;" parent="_H_bEt4n4NwgmmSnS2Ty-11" vertex="1">
          <mxGeometry y="40" width="37.5" height="20" as="geometry" />
        </mxCell>
        <mxCell id="_H_bEt4n4NwgmmSnS2Ty-12" value="DC_RD" style="text;html=1;align=center;verticalAlign=middle;whiteSpace=wrap;rounded=0;container=0;" parent="_H_bEt4n4NwgmmSnS2Ty-11" vertex="1">
          <mxGeometry x="40" y="80" width="50" height="20" as="geometry" />
        </mxCell>
        <mxCell id="_H_bEt4n4NwgmmSnS2Ty-13" value="DC_Status" style="text;html=1;align=center;verticalAlign=middle;whiteSpace=wrap;rounded=0;container=0;" parent="_H_bEt4n4NwgmmSnS2Ty-11" vertex="1">
          <mxGeometry x="30" y="100" width="60" height="20" as="geometry" />
        </mxCell>
        <mxCell id="o8jE4zu5w3KYZrWDI-N--35" style="edgeStyle=orthogonalEdgeStyle;rounded=0;orthogonalLoop=1;jettySize=auto;html=1;entryX=1;entryY=0.5;entryDx=0;entryDy=0;" parent="1" source="o8jE4zu5w3KYZrWDI-N--34" target="o8jE4zu5w3KYZrWDI-N--13" edge="1">
          <mxGeometry relative="1" as="geometry">
            <mxPoint x="303.91" y="612" as="targetPoint" />
            <Array as="points">
              <mxPoint x="293.91" y="1142" />
              <mxPoint x="293.91" y="622" />
              <mxPoint x="302.91" y="622" />
            </Array>
          </mxGeometry>
        </mxCell>
        <mxCell id="o8jE4zu5w3KYZrWDI-N--18" style="edgeStyle=orthogonalEdgeStyle;rounded=0;orthogonalLoop=1;jettySize=auto;html=1;entryX=0;entryY=0.5;entryDx=0;entryDy=0;exitX=1;exitY=0.5;exitDx=0;exitDy=0;" parent="1" source="wyz3YsZ-V2g4d5ax0XK7-10" target="o8jE4zu5w3KYZrWDI-N--15" edge="1">
          <mxGeometry relative="1" as="geometry">
            <Array as="points">
              <mxPoint x="273.91" y="758" />
              <mxPoint x="273.91" y="572" />
            </Array>
          </mxGeometry>
        </mxCell>
        <mxCell id="o8jE4zu5w3KYZrWDI-N--29" style="edgeStyle=orthogonalEdgeStyle;rounded=0;orthogonalLoop=1;jettySize=auto;html=1;entryX=0;entryY=0.5;entryDx=0;entryDy=0;jumpStyle=arc;" parent="1" source="o8jE4zu5w3KYZrWDI-N--27" target="o8jE4zu5w3KYZrWDI-N--28" edge="1">
          <mxGeometry relative="1" as="geometry">
            <Array as="points">
              <mxPoint x="313.91" y="662" />
              <mxPoint x="313.91" y="1092" />
            </Array>
          </mxGeometry>
        </mxCell>
        <mxCell id="o8jE4zu5w3KYZrWDI-N--26" style="edgeStyle=orthogonalEdgeStyle;rounded=0;orthogonalLoop=1;jettySize=auto;html=1;entryX=0;entryY=0.5;entryDx=0;entryDy=0;jumpStyle=arc;" parent="1" source="o8jE4zu5w3KYZrWDI-N--25" target="wyz3YsZ-V2g4d5ax0XK7-13" edge="1">
          <mxGeometry relative="1" as="geometry">
            <Array as="points">
              <mxPoint x="153.91" y="882" />
              <mxPoint x="323.91" y="882" />
              <mxPoint x="323.91" y="1112" />
            </Array>
          </mxGeometry>
        </mxCell>
        <mxCell id="zFS1pn2A8cmfrVWvFFyQ-30" style="edgeStyle=orthogonalEdgeStyle;rounded=0;orthogonalLoop=1;jettySize=auto;html=1;entryX=0;entryY=0.5;entryDx=0;entryDy=0;" parent="1" source="7fQUANpCW0_2PBthWF22-51" target="s6hKSkpy---ewfnxM8lV-30" edge="1">
          <mxGeometry relative="1" as="geometry">
            <Array as="points">
              <mxPoint x="133.91" y="932" />
            </Array>
            <mxPoint x="133.91" y="942" as="sourcePoint" />
          </mxGeometry>
        </mxCell>
        <mxCell id="zFS1pn2A8cmfrVWvFFyQ-49" style="edgeStyle=orthogonalEdgeStyle;rounded=0;orthogonalLoop=1;jettySize=auto;html=1;entryX=0;entryY=0.5;entryDx=0;entryDy=0;jumpStyle=arc;" parent="1" source="q9rqpO51LhmBKndgSOn--5" target="laC3dYbV331lfGwgBf-x-6" edge="1">
          <mxGeometry relative="1" as="geometry">
            <Array as="points">
              <mxPoint x="1303.91" y="642" />
              <mxPoint x="1303.91" y="633" />
            </Array>
          </mxGeometry>
        </mxCell>
        <mxCell id="F4LApp7SRapzV72RJLrX-61" value="" style="group" parent="1" vertex="1" connectable="0">
          <mxGeometry x="973.85" y="462" width="110.06" height="160" as="geometry" />
        </mxCell>
        <mxCell id="-hvyRLRQOOJ3VwnVLbOB-56" value="ALU&lt;div&gt;Control&lt;/div&gt;" style="whiteSpace=wrap;html=1;shadow=1;fontSize=18;fillColor=#f5f5f5;strokeColor=#666666;" parent="F4LApp7SRapzV72RJLrX-61" vertex="1">
          <mxGeometry x="7.337333333333335" width="102.7226666666667" height="160" as="geometry" />
        </mxCell>
        <mxCell id="-hvyRLRQOOJ3VwnVLbOB-61" value="ALUop" style="text;html=1;align=left;verticalAlign=middle;whiteSpace=wrap;rounded=0;" parent="F4LApp7SRapzV72RJLrX-61" vertex="1">
          <mxGeometry x="7.337333333333335" y="8.421052631578947" width="29.34933333333334" height="16.842105263157894" as="geometry" />
        </mxCell>
        <mxCell id="-hvyRLRQOOJ3VwnVLbOB-64" value="funct3" style="text;html=1;align=left;verticalAlign=middle;whiteSpace=wrap;rounded=0;" parent="F4LApp7SRapzV72RJLrX-61" vertex="1">
          <mxGeometry x="7.337333333333335" y="30" width="29.34933333333334" height="20.53" as="geometry" />
        </mxCell>
        <mxCell id="-hvyRLRQOOJ3VwnVLbOB-65" value="funct7" style="text;html=1;align=left;verticalAlign=middle;whiteSpace=wrap;rounded=0;" parent="F4LApp7SRapzV72RJLrX-61" vertex="1">
          <mxGeometry x="7.337333333333335" y="50.526315789473685" width="29.34933333333334" height="16.842105263157894" as="geometry" />
        </mxCell>
        <mxCell id="F4LApp7SRapzV72RJLrX-1" value="ALUcontrol" style="text;html=1;align=center;verticalAlign=middle;whiteSpace=wrap;rounded=0;" parent="F4LApp7SRapzV72RJLrX-61" vertex="1">
          <mxGeometry x="50" y="110" width="60.06" height="20" as="geometry" />
        </mxCell>
        <mxCell id="F4LApp7SRapzV72RJLrX-75" style="edgeStyle=orthogonalEdgeStyle;rounded=0;orthogonalLoop=1;jettySize=auto;html=1;entryX=0;entryY=0.5;entryDx=0;entryDy=0;" parent="1" source="7fQUANpCW0_2PBthWF22-40" target="F4LApp7SRapzV72RJLrX-43" edge="1">
          <mxGeometry relative="1" as="geometry">
            <Array as="points">
              <mxPoint x="863.91" y="672" />
              <mxPoint x="993.91" y="672" />
              <mxPoint x="993.91" y="752" />
            </Array>
          </mxGeometry>
        </mxCell>
        <mxCell id="laC3dYbV331lfGwgBf-x-2" style="edgeStyle=orthogonalEdgeStyle;rounded=0;orthogonalLoop=1;jettySize=auto;html=1;entryX=0;entryY=0.5;entryDx=0;entryDy=0;" parent="1" source="7fQUANpCW0_2PBthWF22-49" target="F4LApp7SRapzV72RJLrX-87" edge="1">
          <mxGeometry relative="1" as="geometry">
            <Array as="points">
              <mxPoint x="1453.91" y="762" />
              <mxPoint x="1453.91" y="872" />
            </Array>
          </mxGeometry>
        </mxCell>
        <mxCell id="laC3dYbV331lfGwgBf-x-4" value="to RegF" style="edgeLabel;html=1;align=center;verticalAlign=middle;resizable=0;points=[];" parent="laC3dYbV331lfGwgBf-x-2" vertex="1" connectable="0">
          <mxGeometry relative="1" as="geometry">
            <mxPoint y="-35" as="offset" />
          </mxGeometry>
        </mxCell>
        <mxCell id="MuofbJJSr7D3HssxxxzW-17" style="edgeStyle=orthogonalEdgeStyle;rounded=0;orthogonalLoop=1;jettySize=auto;html=1;entryX=0;entryY=0.5;entryDx=0;entryDy=0;" parent="1" source="7fQUANpCW0_2PBthWF22-30" target="jQQxH6LwXFBK_Qau7PEY-24" edge="1">
          <mxGeometry relative="1" as="geometry">
            <Array as="points">
              <mxPoint x="123.91" y="322" />
            </Array>
          </mxGeometry>
        </mxCell>
        <mxCell id="laC3dYbV331lfGwgBf-x-32" style="edgeStyle=orthogonalEdgeStyle;rounded=0;orthogonalLoop=1;jettySize=auto;html=1;entryX=0;entryY=0.5;entryDx=0;entryDy=0;jumpStyle=arc;exitX=1;exitY=0.5;exitDx=0;exitDy=0;" parent="1" source="laC3dYbV331lfGwgBf-x-29" target="laC3dYbV331lfGwgBf-x-28" edge="1">
          <mxGeometry relative="1" as="geometry">
            <Array as="points">
              <mxPoint x="1553.91" y="642" />
              <mxPoint x="1553.91" y="342" />
              <mxPoint x="1333.91" y="342" />
              <mxPoint x="1333.91" y="162" />
            </Array>
          </mxGeometry>
        </mxCell>
        <mxCell id="q9rqpO51LhmBKndgSOn--22" style="edgeStyle=orthogonalEdgeStyle;rounded=0;orthogonalLoop=1;jettySize=auto;html=1;entryX=0;entryY=0.5;entryDx=0;entryDy=0;exitX=1;exitY=0.5;exitDx=0;exitDy=0;jumpStyle=arc;" parent="1" source="-hvyRLRQOOJ3VwnVLbOB-8" target="JqTOLJbfiFGYhZ1s0W8t-8" edge="1">
          <mxGeometry relative="1" as="geometry">
            <Array as="points">
              <mxPoint x="563.91" y="582" />
              <mxPoint x="563.91" y="622" />
              <mxPoint x="643.91" y="622" />
              <mxPoint x="643.91" y="712" />
            </Array>
          </mxGeometry>
        </mxCell>
        <mxCell id="q9rqpO51LhmBKndgSOn--23" style="edgeStyle=orthogonalEdgeStyle;rounded=0;orthogonalLoop=1;jettySize=auto;html=1;entryX=0;entryY=0.5;entryDx=0;entryDy=0;exitX=1;exitY=0.5;exitDx=0;exitDy=0;jumpStyle=arc;" parent="1" source="-hvyRLRQOOJ3VwnVLbOB-9" target="JqTOLJbfiFGYhZ1s0W8t-10" edge="1">
          <mxGeometry relative="1" as="geometry">
            <Array as="points">
              <mxPoint x="553.91" y="602" />
              <mxPoint x="553.91" y="642" />
              <mxPoint x="633.91" y="642" />
              <mxPoint x="633.91" y="755" />
            </Array>
          </mxGeometry>
        </mxCell>
        <mxCell id="q9rqpO51LhmBKndgSOn--36" style="edgeStyle=orthogonalEdgeStyle;rounded=0;orthogonalLoop=1;jettySize=auto;html=1;entryX=0;entryY=0.5;entryDx=0;entryDy=0;" parent="1" source="7fQUANpCW0_2PBthWF22-39" target="F4LApp7SRapzV72RJLrX-42" edge="1">
          <mxGeometry relative="1" as="geometry">
            <Array as="points">
              <mxPoint x="883.91" y="662" />
              <mxPoint x="1003.91" y="662" />
              <mxPoint x="1003.91" y="732" />
            </Array>
          </mxGeometry>
        </mxCell>
        <mxCell id="zFS1pn2A8cmfrVWvFFyQ-2" style="edgeStyle=orthogonalEdgeStyle;rounded=0;orthogonalLoop=1;jettySize=auto;html=1;entryX=0.384;entryY=0.014;entryDx=0;entryDy=0;entryPerimeter=0;" parent="1" source="-hvyRLRQOOJ3VwnVLbOB-48" target="zFS1pn2A8cmfrVWvFFyQ-1" edge="1">
          <mxGeometry relative="1" as="geometry">
            <Array as="points">
              <mxPoint x="763.91" y="542" />
              <mxPoint x="737.91" y="542" />
            </Array>
          </mxGeometry>
        </mxCell>
        <mxCell id="zFS1pn2A8cmfrVWvFFyQ-11" style="edgeStyle=orthogonalEdgeStyle;rounded=0;orthogonalLoop=1;jettySize=auto;html=1;entryX=0;entryY=0.5;entryDx=0;entryDy=0;exitX=1;exitY=0.5;exitDx=0;exitDy=0;" parent="1" source="-hvyRLRQOOJ3VwnVLbOB-6" target="-hvyRLRQOOJ3VwnVLbOB-49" edge="1">
          <mxGeometry relative="1" as="geometry">
            <mxPoint x="613.85" y="212" as="targetPoint" />
            <Array as="points">
              <mxPoint x="483.91" y="492" />
              <mxPoint x="593.91" y="492" />
              <mxPoint x="593.91" y="196" />
            </Array>
            <mxPoint x="503.85" y="502" as="sourcePoint" />
          </mxGeometry>
        </mxCell>
        <mxCell id="zFS1pn2A8cmfrVWvFFyQ-12" style="edgeStyle=orthogonalEdgeStyle;rounded=0;orthogonalLoop=1;jettySize=auto;html=1;entryX=0;entryY=0.5;entryDx=0;entryDy=0;exitX=1;exitY=0.5;exitDx=0;exitDy=0;" parent="1" source="s6hKSkpy---ewfnxM8lV-1" target="jQQxH6LwXFBK_Qau7PEY-25" edge="1">
          <mxGeometry relative="1" as="geometry">
            <Array as="points">
              <mxPoint x="833.91" y="161" />
              <mxPoint x="833.91" y="122" />
              <mxPoint x="153.91" y="122" />
              <mxPoint x="153.91" y="282" />
            </Array>
          </mxGeometry>
        </mxCell>
        <mxCell id="zFS1pn2A8cmfrVWvFFyQ-35" style="edgeStyle=orthogonalEdgeStyle;rounded=0;orthogonalLoop=1;jettySize=auto;html=1;entryX=0;entryY=0.5;entryDx=0;entryDy=0;jumpStyle=arc;jumpSize=10;" parent="1" source="jQQxH6LwXFBK_Qau7PEY-29" target="0RyyWnerKbfPe0gcl8zv-7" edge="1">
          <mxGeometry relative="1" as="geometry">
            <Array as="points">
              <mxPoint x="333.91" y="322" />
              <mxPoint x="333.91" y="462" />
              <mxPoint x="13.91" y="462" />
              <mxPoint x="13.91" y="602" />
            </Array>
          </mxGeometry>
        </mxCell>
        <mxCell id="zFS1pn2A8cmfrVWvFFyQ-38" style="edgeStyle=orthogonalEdgeStyle;rounded=0;orthogonalLoop=1;jettySize=auto;html=1;entryX=0;entryY=0.5;entryDx=0;entryDy=0;exitX=1;exitY=0.5;exitDx=0;exitDy=0;jumpStyle=arc;" parent="1" source="-hvyRLRQOOJ3VwnVLbOB-7" target="JqTOLJbfiFGYhZ1s0W8t-5" edge="1">
          <mxGeometry relative="1" as="geometry">
            <Array as="points">
              <mxPoint x="573.91" y="562" />
              <mxPoint x="573.91" y="602" />
              <mxPoint x="653.91" y="602" />
              <mxPoint x="653.91" y="683" />
            </Array>
          </mxGeometry>
        </mxCell>
        <mxCell id="zFS1pn2A8cmfrVWvFFyQ-69" value="" style="group" parent="1" vertex="1" connectable="0">
          <mxGeometry x="1193.8550000000002" y="608.665" width="20.00499999999988" height="66.67000000000007" as="geometry" />
        </mxCell>
        <mxCell id="q9rqpO51LhmBKndgSOn--5" value="" style="shape=trapezoid;perimeter=trapezoidPerimeter;whiteSpace=wrap;html=1;fixedSize=1;shadow=1;strokeColor=#666666;align=center;verticalAlign=middle;fontFamily=Helvetica;fontSize=18;fontColor=default;fillColor=#f5f5f5;rotation=90;" parent="zFS1pn2A8cmfrVWvFFyQ-69" vertex="1">
          <mxGeometry x="-23.335000000000036" y="23.335000000000036" width="66.67" height="20" as="geometry" />
        </mxCell>
        <mxCell id="7fQUANpCW0_2PBthWF22-13" value="&lt;font style=&quot;font-size: 9px;&quot;&gt;00&lt;/font&gt;" style="text;html=1;align=left;verticalAlign=middle;whiteSpace=wrap;rounded=0;" parent="zFS1pn2A8cmfrVWvFFyQ-69" vertex="1">
          <mxGeometry x="0.004999999999881766" y="-0.0049999999999954525" width="20" height="30" as="geometry" />
        </mxCell>
        <mxCell id="7fQUANpCW0_2PBthWF22-14" value="&lt;font style=&quot;font-size: 9px;&quot;&gt;01&lt;/font&gt;" style="text;html=1;align=left;verticalAlign=middle;whiteSpace=wrap;rounded=0;" parent="zFS1pn2A8cmfrVWvFFyQ-69" vertex="1">
          <mxGeometry x="0.004999999999881766" y="18.335000000000036" width="20" height="30" as="geometry" />
        </mxCell>
        <mxCell id="7fQUANpCW0_2PBthWF22-15" value="&lt;font style=&quot;font-size: 9px;&quot;&gt;10&lt;/font&gt;" style="text;html=1;align=left;verticalAlign=middle;whiteSpace=wrap;rounded=0;" parent="zFS1pn2A8cmfrVWvFFyQ-69" vertex="1">
          <mxGeometry x="0.004999999999881766" y="36.675000000000004" width="20" height="30" as="geometry" />
        </mxCell>
        <mxCell id="zFS1pn2A8cmfrVWvFFyQ-78" style="edgeStyle=orthogonalEdgeStyle;rounded=0;orthogonalLoop=1;jettySize=auto;html=1;entryX=0.5;entryY=0;entryDx=0;entryDy=0;jumpStyle=arc;" parent="1" source="F4LApp7SRapzV72RJLrX-1" target="F4LApp7SRapzV72RJLrX-6" edge="1">
          <mxGeometry relative="1" as="geometry" />
        </mxCell>
        <mxCell id="-hvyRLRQOOJ3VwnVLbOB-44" value="&lt;div&gt;&lt;br&gt;&lt;/div&gt;" style="text;html=1;align=center;verticalAlign=middle;whiteSpace=wrap;rounded=0;fontFamily=Helvetica;fontSize=18;fontColor=default;container=0;" parent="1" vertex="1">
          <mxGeometry x="1553.8500000000001" y="912" width="60" height="30" as="geometry" />
        </mxCell>
        <mxCell id="-hvyRLRQOOJ3VwnVLbOB-43" value="" style="shape=trapezoid;perimeter=trapezoidPerimeter;whiteSpace=wrap;html=1;fixedSize=1;shadow=1;strokeColor=#666666;align=center;verticalAlign=middle;fontFamily=Helvetica;fontSize=18;fontColor=default;fillColor=#f5f5f5;rotation=90;container=0;" parent="1" vertex="1">
          <mxGeometry x="1533.8500000000001" y="862" width="140" height="100" as="geometry" />
        </mxCell>
        <mxCell id="F4LApp7SRapzV72RJLrX-87" value="&lt;span style=&quot;font-size: 18px;&quot;&gt;00&lt;/span&gt;" style="text;html=1;align=left;verticalAlign=middle;whiteSpace=wrap;rounded=0;container=0;" parent="1" vertex="1">
          <mxGeometry x="1553.8500000000001" y="862" width="30" height="20" as="geometry" />
        </mxCell>
        <mxCell id="F4LApp7SRapzV72RJLrX-88" value="&lt;span style=&quot;font-size: 18px;&quot;&gt;01&lt;/span&gt;" style="text;html=1;align=left;verticalAlign=middle;whiteSpace=wrap;rounded=0;container=0;" parent="1" vertex="1">
          <mxGeometry x="1553.8500000000001" y="892" width="35" height="20" as="geometry" />
        </mxCell>
        <mxCell id="F4LApp7SRapzV72RJLrX-89" value="&lt;span style=&quot;font-size: 18px;&quot;&gt;10&lt;/span&gt;" style="text;html=1;align=left;verticalAlign=middle;whiteSpace=wrap;rounded=0;container=0;" parent="1" vertex="1">
          <mxGeometry x="1553.8500000000001" y="922" width="30" height="20" as="geometry" />
        </mxCell>
        <mxCell id="F4LApp7SRapzV72RJLrX-91" value="&lt;font style=&quot;font-size: 10px;&quot;&gt;ALUresult&lt;/font&gt;" style="text;html=1;align=left;verticalAlign=middle;whiteSpace=wrap;rounded=0;container=0;" parent="1" vertex="1">
          <mxGeometry x="1583.8500000000001" y="867" width="50" height="10" as="geometry" />
        </mxCell>
        <mxCell id="F4LApp7SRapzV72RJLrX-92" value="&lt;font style=&quot;font-size: 10px;&quot;&gt;Data Memory&lt;/font&gt;" style="text;html=1;align=left;verticalAlign=middle;whiteSpace=wrap;rounded=0;container=0;" parent="1" vertex="1">
          <mxGeometry x="1583.8500000000001" y="892" width="70" height="20" as="geometry" />
        </mxCell>
        <mxCell id="F4LApp7SRapzV72RJLrX-93" value="&lt;span style=&quot;font-size: 10px;&quot;&gt;CSR_RD&lt;/span&gt;" style="text;html=1;align=left;verticalAlign=middle;whiteSpace=wrap;rounded=0;container=0;" parent="1" vertex="1">
          <mxGeometry x="1583.8500000000001" y="922" width="70" height="20" as="geometry" />
        </mxCell>
        <mxCell id="-nASIVS76yrskM6xYjcV-2" value="&lt;h1 style=&quot;margin-top: 0px;&quot;&gt;KHWL_RV32I47TH&lt;/h1&gt;&lt;p&gt;&lt;span style=&quot;background-color: transparent;&quot;&gt;CSR Module, Signals &amp;amp; Modules Optimized.&lt;br&gt;&lt;/span&gt;Adding&amp;nbsp;&lt;span style=&quot;background-color: transparent;&quot;&gt;Exception Detector, Trap Handler.&amp;nbsp;&lt;br&gt;&lt;/span&gt;Signal &amp;amp; Modules Validity verifying.&lt;/p&gt;&lt;p&gt;&lt;/p&gt;&lt;p&gt;&lt;/p&gt;" style="text;html=1;whiteSpace=wrap;overflow=hidden;rounded=0;" parent="1" vertex="1">
          <mxGeometry x="1500.03" y="1140" width="244.94" height="94" as="geometry" />
        </mxCell>
        <mxCell id="-nASIVS76yrskM6xYjcV-3" value="&lt;div style=&quot;&quot;&gt;&lt;span style=&quot;font-size: 14px; background-color: transparent;&quot;&gt;20:25&lt;/span&gt;&lt;b style=&quot;font-size: 14px; background-color: transparent;&quot;&gt;&amp;nbsp; &amp;nbsp;강현우&lt;/b&gt;&lt;span style=&quot;font-size: 14px; background-color: transparent;&quot;&gt;, KHWL2025.&lt;/span&gt;&lt;/div&gt;&lt;span style=&quot;&quot;&gt;&lt;div style=&quot;&quot;&gt;&lt;span style=&quot;background-color: transparent;&quot;&gt;2024.12.15(日) ~ 2025.01.22(水)&lt;/span&gt;&lt;/div&gt;&lt;/span&gt;" style="text;html=1;align=right;verticalAlign=middle;whiteSpace=wrap;rounded=0;" parent="1" vertex="1">
          <mxGeometry x="1320" y="1199" width="179.94" height="35" as="geometry" />
        </mxCell>
        <mxCell id="wTCf3CvT70fc92s2WAtQ-12" value="" style="group" parent="1" vertex="1" connectable="0">
          <mxGeometry x="353.85" y="382" width="200" height="40" as="geometry" />
        </mxCell>
        <mxCell id="wTCf3CvT70fc92s2WAtQ-9" value="&lt;div&gt;J_Aligner&lt;/div&gt;" style="whiteSpace=wrap;html=1;shadow=1;fontSize=18;fillColor=#f5f5f5;strokeColor=#666666;" parent="wTCf3CvT70fc92s2WAtQ-12" vertex="1">
          <mxGeometry width="200" height="40" as="geometry" />
        </mxCell>
        <mxCell id="wTCf3CvT70fc92s2WAtQ-10" value="J_Target" style="text;html=1;align=left;verticalAlign=middle;whiteSpace=wrap;rounded=0;" parent="wTCf3CvT70fc92s2WAtQ-12" vertex="1">
          <mxGeometry y="10" width="50" height="20" as="geometry" />
        </mxCell>
        <mxCell id="wTCf3CvT70fc92s2WAtQ-11" value="ALUresult" style="text;html=1;align=right;verticalAlign=middle;whiteSpace=wrap;rounded=0;" parent="wTCf3CvT70fc92s2WAtQ-12" vertex="1">
          <mxGeometry x="140" y="10" width="60" height="20" as="geometry" />
        </mxCell>
        <mxCell id="wTCf3CvT70fc92s2WAtQ-15" style="edgeStyle=orthogonalEdgeStyle;rounded=0;orthogonalLoop=1;jettySize=auto;html=1;entryX=0;entryY=0.5;entryDx=0;entryDy=0;jumpStyle=arc;jumpSize=10;" parent="1" source="wTCf3CvT70fc92s2WAtQ-10" target="jQQxH6LwXFBK_Qau7PEY-26" edge="1">
          <mxGeometry relative="1" as="geometry">
            <Array as="points">
              <mxPoint x="313.91" y="402" />
              <mxPoint x="313.91" y="432" />
              <mxPoint x="143.91" y="432" />
              <mxPoint x="143.91" y="382" />
            </Array>
          </mxGeometry>
        </mxCell>
        <mxCell id="wTCf3CvT70fc92s2WAtQ-16" value="" style="group" parent="1" vertex="1" connectable="0">
          <mxGeometry x="333.91" y="482" width="140" height="160" as="geometry" />
        </mxCell>
        <mxCell id="-hvyRLRQOOJ3VwnVLbOB-1" value="Instruction&lt;div&gt;Decoder&lt;/div&gt;" style="whiteSpace=wrap;html=1;shadow=1;fontSize=18;fillColor=#f5f5f5;strokeColor=#666666;" parent="wTCf3CvT70fc92s2WAtQ-16" vertex="1">
          <mxGeometry x="18.666666666666668" width="121.33333333333333" height="160" as="geometry" />
        </mxCell>
        <mxCell id="-hvyRLRQOOJ3VwnVLbOB-2" value="I_RD" style="text;html=1;align=left;verticalAlign=middle;whiteSpace=wrap;rounded=0;" parent="wTCf3CvT70fc92s2WAtQ-16" vertex="1">
          <mxGeometry x="18.666666666666668" y="20" width="28" height="20" as="geometry" />
        </mxCell>
        <mxCell id="-hvyRLRQOOJ3VwnVLbOB-6" value="opcode" style="text;html=1;align=right;verticalAlign=middle;whiteSpace=wrap;rounded=0;" parent="wTCf3CvT70fc92s2WAtQ-16" vertex="1">
          <mxGeometry x="90" width="50" height="20" as="geometry" />
        </mxCell>
        <mxCell id="-hvyRLRQOOJ3VwnVLbOB-7" value="&lt;div style=&quot;&quot;&gt;&lt;span style=&quot;background-color: transparent;&quot;&gt;rs1&lt;/span&gt;&lt;/div&gt;" style="text;html=1;align=right;verticalAlign=middle;whiteSpace=wrap;rounded=0;" parent="wTCf3CvT70fc92s2WAtQ-16" vertex="1">
          <mxGeometry x="121.33333333333333" y="73.33333333333333" width="18.666666666666668" height="13.333333333333334" as="geometry" />
        </mxCell>
        <mxCell id="-hvyRLRQOOJ3VwnVLbOB-8" value="rs2" style="text;html=1;align=right;verticalAlign=middle;whiteSpace=wrap;rounded=0;" parent="wTCf3CvT70fc92s2WAtQ-16" vertex="1">
          <mxGeometry x="121.33333333333333" y="93.33333333333333" width="18.666666666666668" height="13.333333333333334" as="geometry" />
        </mxCell>
        <mxCell id="-hvyRLRQOOJ3VwnVLbOB-9" value="rd" style="text;html=1;align=right;verticalAlign=middle;whiteSpace=wrap;rounded=0;" parent="wTCf3CvT70fc92s2WAtQ-16" vertex="1">
          <mxGeometry x="121.33333333333333" y="113.33333333333333" width="18.666666666666668" height="13.333333333333334" as="geometry" />
        </mxCell>
        <mxCell id="-hvyRLRQOOJ3VwnVLbOB-10" value="imm" style="text;html=1;align=right;verticalAlign=middle;whiteSpace=wrap;rounded=0;" parent="wTCf3CvT70fc92s2WAtQ-16" vertex="1">
          <mxGeometry x="112" y="140" width="28" height="13.333333333333334" as="geometry" />
        </mxCell>
        <mxCell id="-hvyRLRQOOJ3VwnVLbOB-11" value="funct3" style="text;html=1;align=right;verticalAlign=middle;whiteSpace=wrap;rounded=0;" parent="wTCf3CvT70fc92s2WAtQ-16" vertex="1">
          <mxGeometry x="102.66666666666667" y="26.666666666666668" width="37.333333333333336" height="13.333333333333334" as="geometry" />
        </mxCell>
        <mxCell id="-hvyRLRQOOJ3VwnVLbOB-12" value="funct7" style="text;html=1;align=right;verticalAlign=middle;whiteSpace=wrap;rounded=0;" parent="wTCf3CvT70fc92s2WAtQ-16" vertex="1">
          <mxGeometry x="102.66666666666667" y="40" width="37.333333333333336" height="13.333333333333334" as="geometry" />
        </mxCell>
        <mxCell id="wTCf3CvT70fc92s2WAtQ-32" style="edgeStyle=orthogonalEdgeStyle;rounded=0;orthogonalLoop=1;jettySize=auto;html=1;entryX=0;entryY=0.5;entryDx=0;entryDy=0;" parent="1" source="-hvyRLRQOOJ3VwnVLbOB-10" target="laC3dYbV331lfGwgBf-x-16" edge="1">
          <mxGeometry relative="1" as="geometry">
            <Array as="points">
              <mxPoint x="503.91" y="629" />
              <mxPoint x="503.91" y="672" />
            </Array>
          </mxGeometry>
        </mxCell>
        <mxCell id="wTCf3CvT70fc92s2WAtQ-35" value="" style="group" parent="1" vertex="1" connectable="0">
          <mxGeometry x="1353.8500000000001" y="122" width="100" height="200" as="geometry" />
        </mxCell>
        <mxCell id="laC3dYbV331lfGwgBf-x-27" value="Branch&lt;div&gt;Logic&lt;/div&gt;" style="whiteSpace=wrap;html=1;shadow=1;fontSize=18;fillColor=#f5f5f5;strokeColor=#666666;" parent="wTCf3CvT70fc92s2WAtQ-35" vertex="1">
          <mxGeometry width="100" height="200" as="geometry" />
        </mxCell>
        <mxCell id="laC3dYbV331lfGwgBf-x-28" value="ALUzero" style="text;html=1;align=left;verticalAlign=middle;whiteSpace=wrap;rounded=0;" parent="wTCf3CvT70fc92s2WAtQ-35" vertex="1">
          <mxGeometry y="30" width="50" height="20" as="geometry" />
        </mxCell>
        <mxCell id="laC3dYbV331lfGwgBf-x-42" value="Branch" style="text;html=1;align=left;verticalAlign=middle;whiteSpace=wrap;rounded=0;" parent="wTCf3CvT70fc92s2WAtQ-35" vertex="1">
          <mxGeometry y="50" width="40" height="26.67" as="geometry" />
        </mxCell>
        <mxCell id="s6hKSkpy---ewfnxM8lV-11" value="BTaken" style="text;html=1;align=right;verticalAlign=middle;whiteSpace=wrap;rounded=0;" parent="wTCf3CvT70fc92s2WAtQ-35" vertex="1">
          <mxGeometry x="64.28999999999996" y="50" width="35.71" height="20" as="geometry" />
        </mxCell>
        <mxCell id="q9rqpO51LhmBKndgSOn--34" value="funct3" style="text;html=1;align=left;verticalAlign=middle;whiteSpace=wrap;rounded=0;" parent="wTCf3CvT70fc92s2WAtQ-35" vertex="1">
          <mxGeometry y="170" width="40" height="20" as="geometry" />
        </mxCell>
        <mxCell id="wTCf3CvT70fc92s2WAtQ-38" value="" style="group" parent="1" vertex="1" connectable="0">
          <mxGeometry x="633.85" y="142" width="160" height="280" as="geometry" />
        </mxCell>
        <mxCell id="-hvyRLRQOOJ3VwnVLbOB-47" value="Control&lt;div&gt;Unit&lt;/div&gt;" style="whiteSpace=wrap;html=1;shadow=1;fontSize=18;fillColor=#f5f5f5;strokeColor=#666666;" parent="wTCf3CvT70fc92s2WAtQ-38" vertex="1">
          <mxGeometry width="160" height="280" as="geometry" />
        </mxCell>
        <mxCell id="-hvyRLRQOOJ3VwnVLbOB-48" value="RegWrite" style="text;html=1;align=center;verticalAlign=middle;whiteSpace=wrap;rounded=0;" parent="wTCf3CvT70fc92s2WAtQ-38" vertex="1">
          <mxGeometry x="105" y="258.46153846153845" width="50" height="21.538461538461537" as="geometry" />
        </mxCell>
        <mxCell id="-hvyRLRQOOJ3VwnVLbOB-49" value="opcode" style="text;html=1;align=left;verticalAlign=middle;whiteSpace=wrap;rounded=0;" parent="wTCf3CvT70fc92s2WAtQ-38" vertex="1">
          <mxGeometry y="43.07692307692307" width="50" height="21.538461538461537" as="geometry" />
        </mxCell>
        <mxCell id="-hvyRLRQOOJ3VwnVLbOB-59" value="ALUop" style="text;html=1;align=center;verticalAlign=middle;whiteSpace=wrap;rounded=0;" parent="wTCf3CvT70fc92s2WAtQ-38" vertex="1">
          <mxGeometry x="120" y="59.995384615384616" width="40" height="21.538461538461537" as="geometry" />
        </mxCell>
        <mxCell id="F4LApp7SRapzV72RJLrX-56" value="MemRead" style="text;html=1;align=center;verticalAlign=middle;whiteSpace=wrap;rounded=0;" parent="wTCf3CvT70fc92s2WAtQ-38" vertex="1">
          <mxGeometry x="100" y="177.70000000000002" width="60" height="26.92" as="geometry" />
        </mxCell>
        <mxCell id="F4LApp7SRapzV72RJLrX-73" value="MemWrite" style="text;html=1;align=center;verticalAlign=middle;whiteSpace=wrap;rounded=0;" parent="wTCf3CvT70fc92s2WAtQ-38" vertex="1">
          <mxGeometry x="100" y="161.53846153846152" width="60" height="21.538461538461537" as="geometry" />
        </mxCell>
        <mxCell id="laC3dYbV331lfGwgBf-x-33" value="ALUsrcB" style="text;html=1;align=center;verticalAlign=middle;whiteSpace=wrap;rounded=0;" parent="wTCf3CvT70fc92s2WAtQ-38" vertex="1">
          <mxGeometry x="110" y="118.46" width="50" height="21.54" as="geometry" />
        </mxCell>
        <mxCell id="laC3dYbV331lfGwgBf-x-37" value="Mem2Reg" style="text;html=1;align=center;verticalAlign=middle;whiteSpace=wrap;rounded=0;" parent="wTCf3CvT70fc92s2WAtQ-38" vertex="1">
          <mxGeometry x="100" y="204.6153846153846" width="60" height="21.538461538461537" as="geometry" />
        </mxCell>
        <mxCell id="laC3dYbV331lfGwgBf-x-40" value="Branch" style="text;html=1;align=center;verticalAlign=middle;whiteSpace=wrap;rounded=0;" parent="wTCf3CvT70fc92s2WAtQ-38" vertex="1">
          <mxGeometry x="120" y="32.30769230769231" width="40" height="21.538461538461537" as="geometry" />
        </mxCell>
        <mxCell id="s6hKSkpy---ewfnxM8lV-1" value="Jump" style="text;html=1;align=center;verticalAlign=middle;whiteSpace=wrap;rounded=0;" parent="wTCf3CvT70fc92s2WAtQ-38" vertex="1">
          <mxGeometry x="120" y="8.459230769230768" width="40" height="21.538461538461537" as="geometry" />
        </mxCell>
        <mxCell id="q9rqpO51LhmBKndgSOn--2" value="ALUsrcA" style="text;html=1;align=center;verticalAlign=middle;whiteSpace=wrap;rounded=0;" parent="wTCf3CvT70fc92s2WAtQ-38" vertex="1">
          <mxGeometry x="110" y="96.92307692307692" width="50" height="21.538461538461537" as="geometry" />
        </mxCell>
        <mxCell id="jGIxOcGe_lyUybQSf8QV-1" value="funct3" style="text;html=1;align=left;verticalAlign=middle;whiteSpace=wrap;rounded=0;" parent="wTCf3CvT70fc92s2WAtQ-38" vertex="1">
          <mxGeometry y="74.81384615384619" width="40" height="22.10923076923077" as="geometry" />
        </mxCell>
        <mxCell id="jGIxOcGe_lyUybQSf8QV-4" value="CSRop" style="text;html=1;align=center;verticalAlign=middle;whiteSpace=wrap;rounded=0;" parent="wTCf3CvT70fc92s2WAtQ-38" vertex="1">
          <mxGeometry x="120" y="74.8153846153846" width="40" height="21.538461538461537" as="geometry" />
        </mxCell>
        <mxCell id="QWSBbdvPpNymhQ5q6x3e-9" value="CSRenable" style="text;html=1;align=right;verticalAlign=middle;whiteSpace=wrap;rounded=0;container=0;" parent="wTCf3CvT70fc92s2WAtQ-38" vertex="1">
          <mxGeometry x="90" y="230" width="70" height="20" as="geometry" />
        </mxCell>
        <mxCell id="LOUQa-txSwxVZWsO9tRF-1" value="CSRsrc" style="text;html=1;align=center;verticalAlign=middle;whiteSpace=wrap;rounded=0;" parent="wTCf3CvT70fc92s2WAtQ-38" vertex="1">
          <mxGeometry x="110" y="140" width="50" height="21.54" as="geometry" />
        </mxCell>
        <mxCell id="BtpwSkirMHUlfhhFMKDF-12" value="" style="group" parent="1" vertex="1" connectable="0">
          <mxGeometry x="1563.91" y="42" width="110" height="200" as="geometry" />
        </mxCell>
        <mxCell id="BtpwSkirMHUlfhhFMKDF-2" value="BE_Logic" style="whiteSpace=wrap;html=1;shadow=1;fontSize=18;fillColor=#f5f5f5;strokeColor=#666666;" parent="BtpwSkirMHUlfhhFMKDF-12" vertex="1">
          <mxGeometry width="110" height="200" as="geometry" />
        </mxCell>
        <mxCell id="BtpwSkirMHUlfhhFMKDF-3" value="MemWrite" style="text;html=1;align=left;verticalAlign=middle;whiteSpace=wrap;rounded=0;" parent="BtpwSkirMHUlfhhFMKDF-12" vertex="1">
          <mxGeometry x="0.01" y="10" width="60" height="20" as="geometry" />
        </mxCell>
        <mxCell id="BtpwSkirMHUlfhhFMKDF-4" value="MemRead" style="text;html=1;align=left;verticalAlign=middle;whiteSpace=wrap;rounded=0;" parent="BtpwSkirMHUlfhhFMKDF-12" vertex="1">
          <mxGeometry y="33.33" width="60" height="16.67" as="geometry" />
        </mxCell>
        <mxCell id="BtpwSkirMHUlfhhFMKDF-5" value="BERF_WD" style="text;html=1;align=right;verticalAlign=middle;whiteSpace=wrap;rounded=0;" parent="BtpwSkirMHUlfhhFMKDF-12" vertex="1">
          <mxGeometry x="50" y="45" width="60" height="20" as="geometry" />
        </mxCell>
        <mxCell id="BtpwSkirMHUlfhhFMKDF-6" value="funct3" style="text;html=1;align=left;verticalAlign=middle;whiteSpace=wrap;rounded=0;" parent="BtpwSkirMHUlfhhFMKDF-12" vertex="1">
          <mxGeometry x="0.01" y="150" width="40" height="20" as="geometry" />
        </mxCell>
        <mxCell id="BtpwSkirMHUlfhhFMKDF-7" value="DM2RF_RD" style="text;html=1;align=left;verticalAlign=middle;whiteSpace=wrap;rounded=0;" parent="BtpwSkirMHUlfhhFMKDF-12" vertex="1">
          <mxGeometry y="56.67" width="50" height="26.67" as="geometry" />
        </mxCell>
        <mxCell id="BtpwSkirMHUlfhhFMKDF-8" value="RF2DM_RD" style="text;html=1;align=left;verticalAlign=middle;whiteSpace=wrap;rounded=0;" parent="BtpwSkirMHUlfhhFMKDF-12" vertex="1">
          <mxGeometry y="110" width="70" height="20" as="geometry" />
        </mxCell>
        <mxCell id="BtpwSkirMHUlfhhFMKDF-9" value="address" style="text;html=1;align=left;verticalAlign=middle;whiteSpace=wrap;rounded=0;" parent="BtpwSkirMHUlfhhFMKDF-12" vertex="1">
          <mxGeometry y="170" width="60" height="20" as="geometry" />
        </mxCell>
        <mxCell id="BtpwSkirMHUlfhhFMKDF-10" value="BEDM_WD" style="text;html=1;align=right;verticalAlign=middle;whiteSpace=wrap;rounded=0;" parent="BtpwSkirMHUlfhhFMKDF-12" vertex="1">
          <mxGeometry x="40" y="130" width="70" height="20" as="geometry" />
        </mxCell>
        <mxCell id="BtpwSkirMHUlfhhFMKDF-11" value="WriteMask" style="text;html=1;align=right;verticalAlign=middle;whiteSpace=wrap;rounded=0;" parent="BtpwSkirMHUlfhhFMKDF-12" vertex="1">
          <mxGeometry x="50" y="170" width="60" height="20" as="geometry" />
        </mxCell>
        <mxCell id="BtpwSkirMHUlfhhFMKDF-15" style="edgeStyle=orthogonalEdgeStyle;rounded=0;orthogonalLoop=1;jettySize=auto;html=1;entryX=0;entryY=0.5;entryDx=0;entryDy=0;jumpStyle=arc;jumpSize=7;" parent="1" source="7fQUANpCW0_2PBthWF22-46" target="BtpwSkirMHUlfhhFMKDF-9" edge="1">
          <mxGeometry relative="1" as="geometry">
            <Array as="points">
              <mxPoint x="1533.91" y="722" />
              <mxPoint x="1533.91" y="222" />
            </Array>
            <mxPoint x="1493.91" y="752" as="sourcePoint" />
          </mxGeometry>
        </mxCell>
        <mxCell id="JPoRV0-0kWKYk73e9sCu-15" value="to BE" style="edgeLabel;html=1;align=center;verticalAlign=middle;resizable=0;points=[];" parent="BtpwSkirMHUlfhhFMKDF-15" vertex="1" connectable="0">
          <mxGeometry x="-0.9526" relative="1" as="geometry">
            <mxPoint x="26" y="-20" as="offset" />
          </mxGeometry>
        </mxCell>
        <mxCell id="BtpwSkirMHUlfhhFMKDF-23" style="edgeStyle=orthogonalEdgeStyle;rounded=0;orthogonalLoop=1;jettySize=auto;html=1;entryX=0;entryY=0.5;entryDx=0;entryDy=0;exitX=1;exitY=0.5;exitDx=0;exitDy=0;jumpStyle=arc;" parent="1" source="BtpwSkirMHUlfhhFMKDF-10" target="F4LApp7SRapzV72RJLrX-41" edge="1">
          <mxGeometry relative="1" as="geometry">
            <Array as="points">
              <mxPoint x="1693.91" y="182" />
              <mxPoint x="1693.91" y="1112" />
              <mxPoint x="993.91" y="1112" />
              <mxPoint x="993.91" y="832" />
            </Array>
          </mxGeometry>
        </mxCell>
        <mxCell id="BtpwSkirMHUlfhhFMKDF-24" style="edgeStyle=orthogonalEdgeStyle;rounded=0;orthogonalLoop=1;jettySize=auto;html=1;entryX=0;entryY=0.5;entryDx=0;entryDy=0;exitX=1;exitY=0.5;exitDx=0;exitDy=0;jumpStyle=arc;" parent="1" source="BtpwSkirMHUlfhhFMKDF-5" target="F4LApp7SRapzV72RJLrX-88" edge="1">
          <mxGeometry relative="1" as="geometry">
            <Array as="points">
              <mxPoint x="1683.91" y="97" />
              <mxPoint x="1683.91" y="262" />
              <mxPoint x="1573.91" y="262" />
              <mxPoint x="1573.91" y="802" />
              <mxPoint x="1533.91" y="802" />
              <mxPoint x="1533.91" y="902" />
            </Array>
          </mxGeometry>
        </mxCell>
        <mxCell id="BtpwSkirMHUlfhhFMKDF-26" style="edgeStyle=orthogonalEdgeStyle;rounded=0;orthogonalLoop=1;jettySize=auto;html=1;entryX=0;entryY=0.5;entryDx=0;entryDy=0;exitX=1;exitY=0.5;exitDx=0;exitDy=0;jumpStyle=arc;" parent="1" source="BtpwSkirMHUlfhhFMKDF-11" target="BtpwSkirMHUlfhhFMKDF-25" edge="1">
          <mxGeometry relative="1" as="geometry">
            <Array as="points">
              <mxPoint x="1703.91" y="222" />
              <mxPoint x="1703.91" y="1102" />
              <mxPoint x="983.91" y="1102" />
              <mxPoint x="983.91" y="812" />
            </Array>
          </mxGeometry>
        </mxCell>
        <mxCell id="THBCQazlCQPBuUSzStiJ-1" value="" style="group" parent="1" vertex="1" connectable="0">
          <mxGeometry x="33.849999999999994" y="482" width="80" height="230" as="geometry" />
        </mxCell>
        <mxCell id="3a17f1ce550125da-8" value="Program&lt;div&gt;Counter&lt;/div&gt;" style="whiteSpace=wrap;html=1;shadow=1;fontSize=18;fillColor=#f5f5f5;strokeColor=#666666;" parent="THBCQazlCQPBuUSzStiJ-1" vertex="1">
          <mxGeometry y="80" width="80" height="150" as="geometry" />
        </mxCell>
        <mxCell id="0RyyWnerKbfPe0gcl8zv-7" value="NextPC" style="text;html=1;align=left;verticalAlign=middle;whiteSpace=wrap;rounded=0;" parent="THBCQazlCQPBuUSzStiJ-1" vertex="1">
          <mxGeometry y="110" width="50" height="20" as="geometry" />
        </mxCell>
        <mxCell id="0RyyWnerKbfPe0gcl8zv-8" value="PC" style="text;html=1;align=right;verticalAlign=middle;whiteSpace=wrap;rounded=0;" parent="THBCQazlCQPBuUSzStiJ-1" vertex="1">
          <mxGeometry x="60" y="110" width="20" height="20" as="geometry" />
        </mxCell>
        <mxCell id="zFS1pn2A8cmfrVWvFFyQ-53" value="" style="group" parent="THBCQazlCQPBuUSzStiJ-1" vertex="1" connectable="0">
          <mxGeometry x="10" width="20" height="90" as="geometry" />
        </mxCell>
        <mxCell id="0RyyWnerKbfPe0gcl8zv-11" value="" style="triangle;whiteSpace=wrap;html=1;rotation=90;" parent="zFS1pn2A8cmfrVWvFFyQ-53" vertex="1">
          <mxGeometry x="5" y="75" width="10" height="20" as="geometry" />
        </mxCell>
        <mxCell id="zFS1pn2A8cmfrVWvFFyQ-21" value="" style="edgeStyle=none;orthogonalLoop=1;jettySize=auto;html=1;rounded=0;" parent="zFS1pn2A8cmfrVWvFFyQ-53" edge="1">
          <mxGeometry width="100" relative="1" as="geometry">
            <mxPoint x="10" as="sourcePoint" />
            <mxPoint x="10" y="80" as="targetPoint" />
            <Array as="points" />
          </mxGeometry>
        </mxCell>
        <mxCell id="zFS1pn2A8cmfrVWvFFyQ-25" value="CLK" style="edgeLabel;html=1;align=center;verticalAlign=middle;resizable=0;points=[];" parent="zFS1pn2A8cmfrVWvFFyQ-21" vertex="1" connectable="0">
          <mxGeometry x="-0.0019" relative="1" as="geometry">
            <mxPoint as="offset" />
          </mxGeometry>
        </mxCell>
        <mxCell id="zFS1pn2A8cmfrVWvFFyQ-64" value="" style="group" parent="THBCQazlCQPBuUSzStiJ-1" vertex="1" connectable="0">
          <mxGeometry x="39.900000000000006" width="30.099999999999994" height="80" as="geometry" />
        </mxCell>
        <mxCell id="0RyyWnerKbfPe0gcl8zv-13" value="" style="edgeStyle=elbowEdgeStyle;rounded=0;html=1;startArrow=none;startFill=0;jettySize=auto;orthogonalLoop=1;fontSize=18;elbow=vertical;entryX=0.75;entryY=0;entryDx=0;entryDy=0;" parent="zFS1pn2A8cmfrVWvFFyQ-64" edge="1">
          <mxGeometry relative="1" as="geometry">
            <Array as="points">
              <mxPoint y="40" />
            </Array>
            <mxPoint as="sourcePoint" />
            <mxPoint x="5.684341886080802e-14" y="80" as="targetPoint" />
          </mxGeometry>
        </mxCell>
        <mxCell id="zFS1pn2A8cmfrVWvFFyQ-26" value="RST" style="text;html=1;align=center;verticalAlign=middle;resizable=1;points=[];autosize=1;strokeColor=none;fillColor=none;movable=1;rotatable=1;deletable=1;editable=1;locked=0;connectable=1;" parent="zFS1pn2A8cmfrVWvFFyQ-64" vertex="1">
          <mxGeometry x="0.09999999999999432" y="50" width="30" height="20" as="geometry" />
        </mxCell>
        <mxCell id="jGIxOcGe_lyUybQSf8QV-17" value="" style="group" parent="1" vertex="1" connectable="0">
          <mxGeometry x="673.85" y="582" width="122.83" height="260.0000000000001" as="geometry" />
        </mxCell>
        <mxCell id="3a17f1ce550125da-2" value="Register&lt;div&gt;File&lt;/div&gt;" style="whiteSpace=wrap;html=1;shadow=1;fontSize=18;fillColor=#f5f5f5;strokeColor=#666666;container=0;" parent="jGIxOcGe_lyUybQSf8QV-17" vertex="1">
          <mxGeometry y="57.777777777777786" width="122.83000000000001" height="202.22222222222223" as="geometry" />
        </mxCell>
        <mxCell id="JqTOLJbfiFGYhZ1s0W8t-5" value="RA1" style="text;html=1;align=left;verticalAlign=middle;whiteSpace=wrap;rounded=0;container=0;" parent="jGIxOcGe_lyUybQSf8QV-17" vertex="1">
          <mxGeometry y="93.8888888888889" width="59.99782905627267" height="14.444444444444446" as="geometry" />
        </mxCell>
        <mxCell id="JqTOLJbfiFGYhZ1s0W8t-8" value="RA2" style="text;html=1;align=left;verticalAlign=middle;whiteSpace=wrap;rounded=0;container=0;" parent="jGIxOcGe_lyUybQSf8QV-17" vertex="1">
          <mxGeometry y="122.7777777777778" width="59.99782905627267" height="14.444444444444446" as="geometry" />
        </mxCell>
        <mxCell id="JqTOLJbfiFGYhZ1s0W8t-10" value="WA" style="text;html=1;align=left;verticalAlign=middle;whiteSpace=wrap;rounded=0;container=0;" parent="jGIxOcGe_lyUybQSf8QV-17" vertex="1">
          <mxGeometry y="158.8888888888889" width="43.35176470588236" height="28.888888888888893" as="geometry" />
        </mxCell>
        <mxCell id="JqTOLJbfiFGYhZ1s0W8t-13" value="RF_WD" style="text;html=1;align=center;verticalAlign=middle;whiteSpace=wrap;rounded=0;container=0;" parent="jGIxOcGe_lyUybQSf8QV-17" vertex="1">
          <mxGeometry x="1.68" y="199.9955555555556" width="39.99855270418178" height="14.444444444444446" as="geometry" />
        </mxCell>
        <mxCell id="JqTOLJbfiFGYhZ1s0W8t-16" value="RD1" style="text;html=1;align=right;verticalAlign=middle;whiteSpace=wrap;rounded=0;container=0;" parent="jGIxOcGe_lyUybQSf8QV-17" vertex="1">
          <mxGeometry x="101.15411764705887" y="93.8888888888889" width="21.67588235294118" height="14.444444444444446" as="geometry" />
        </mxCell>
        <mxCell id="JqTOLJbfiFGYhZ1s0W8t-17" value="RD2" style="text;html=1;align=right;verticalAlign=middle;whiteSpace=wrap;rounded=0;container=0;" parent="jGIxOcGe_lyUybQSf8QV-17" vertex="1">
          <mxGeometry x="90" y="110" width="32.83" height="20" as="geometry" />
        </mxCell>
        <mxCell id="zFS1pn2A8cmfrVWvFFyQ-1" value="RegWrite" style="text;html=1;align=center;verticalAlign=middle;whiteSpace=wrap;rounded=0;container=0;" parent="jGIxOcGe_lyUybQSf8QV-17" vertex="1">
          <mxGeometry x="50.57705882352938" y="57.777777777777786" width="36.1264705882353" height="14.444444444444446" as="geometry" />
        </mxCell>
        <mxCell id="jGIxOcGe_lyUybQSf8QV-18" value="" style="triangle;whiteSpace=wrap;html=1;rotation=90;container=0;" parent="jGIxOcGe_lyUybQSf8QV-17" vertex="1">
          <mxGeometry x="25" y="53.00000000000003" width="10" height="20" as="geometry" />
        </mxCell>
        <mxCell id="jGIxOcGe_lyUybQSf8QV-19" value="" style="edgeStyle=none;orthogonalLoop=1;jettySize=auto;html=1;rounded=0;" parent="jGIxOcGe_lyUybQSf8QV-17" edge="1">
          <mxGeometry width="100" relative="1" as="geometry">
            <mxPoint x="30.059999999999945" y="20" as="sourcePoint" />
            <mxPoint x="30" y="58.00000000000003" as="targetPoint" />
            <Array as="points" />
          </mxGeometry>
        </mxCell>
        <mxCell id="jGIxOcGe_lyUybQSf8QV-20" value="CLK" style="edgeLabel;html=1;align=center;verticalAlign=middle;resizable=0;points=[];container=0;" parent="jGIxOcGe_lyUybQSf8QV-19" vertex="1" connectable="0">
          <mxGeometry x="-0.0019" relative="1" as="geometry">
            <mxPoint y="-5" as="offset" />
          </mxGeometry>
        </mxCell>
        <mxCell id="jGIxOcGe_lyUybQSf8QV-46" style="edgeStyle=orthogonalEdgeStyle;rounded=0;orthogonalLoop=1;jettySize=auto;html=1;entryX=0;entryY=0.5;entryDx=0;entryDy=0;jumpStyle=arc;" parent="1" source="jGIxOcGe_lyUybQSf8QV-4" target="QWSBbdvPpNymhQ5q6x3e-5" edge="1">
          <mxGeometry relative="1" as="geometry">
            <mxPoint x="833.91" y="739.0250000000001" as="targetPoint" />
            <Array as="points">
              <mxPoint x="823.91" y="228" />
              <mxPoint x="823.91" y="622" />
              <mxPoint x="803.91" y="622" />
              <mxPoint x="803.91" y="742" />
              <mxPoint x="833.91" y="742" />
            </Array>
          </mxGeometry>
        </mxCell>
        <mxCell id="QWSBbdvPpNymhQ5q6x3e-8" style="edgeStyle=orthogonalEdgeStyle;rounded=0;orthogonalLoop=1;jettySize=auto;html=1;entryX=0;entryY=0.5;entryDx=0;entryDy=0;exitX=1;exitY=0.5;exitDx=0;exitDy=0;jumpStyle=arc;" parent="1" source="QWSBbdvPpNymhQ5q6x3e-9" target="QWSBbdvPpNymhQ5q6x3e-6" edge="1">
          <mxGeometry relative="1" as="geometry">
            <mxPoint x="793.85" y="382.0103092783505" as="sourcePoint" />
            <Array as="points">
              <mxPoint x="833.91" y="382" />
              <mxPoint x="833.91" y="632" />
              <mxPoint x="813.91" y="632" />
              <mxPoint x="813.91" y="722" />
            </Array>
          </mxGeometry>
        </mxCell>
        <mxCell id="QWSBbdvPpNymhQ5q6x3e-11" value="" style="edgeStyle=none;orthogonalLoop=1;jettySize=auto;html=1;rounded=0;entryX=0;entryY=0.5;entryDx=0;entryDy=0;" parent="1" edge="1">
          <mxGeometry width="100" relative="1" as="geometry">
            <mxPoint x="813.91" y="771.77" as="sourcePoint" />
            <mxPoint x="833.9100000000001" y="771.9399999999999" as="targetPoint" />
            <Array as="points" />
          </mxGeometry>
        </mxCell>
        <mxCell id="QWSBbdvPpNymhQ5q6x3e-13" value="" style="edgeStyle=elbowEdgeStyle;rounded=0;html=1;startArrow=none;startFill=0;jettySize=auto;orthogonalLoop=1;fontSize=18;elbow=vertical;entryX=0;entryY=0.5;entryDx=0;entryDy=0;" parent="1" target="QWSBbdvPpNymhQ5q6x3e-16" edge="1">
          <mxGeometry relative="1" as="geometry">
            <Array as="points" />
            <mxPoint x="803.91" y="792" as="sourcePoint" />
            <mxPoint x="816.68" y="832.0000000000001" as="targetPoint" />
          </mxGeometry>
        </mxCell>
        <mxCell id="7fQUANpCW0_2PBthWF22-2" value="&lt;span style=&quot;font-size: 18px;&quot;&gt;11&lt;/span&gt;" style="text;html=1;align=left;verticalAlign=middle;whiteSpace=wrap;rounded=0;container=0;" parent="1" vertex="1">
          <mxGeometry x="1553.8500000000001" y="952" width="30" height="20" as="geometry" />
        </mxCell>
        <mxCell id="7fQUANpCW0_2PBthWF22-3" value="&lt;span style=&quot;font-size: 10px;&quot;&gt;PC+4&lt;/span&gt;" style="text;html=1;align=left;verticalAlign=middle;whiteSpace=wrap;rounded=0;container=0;" parent="1" vertex="1">
          <mxGeometry x="1583.8500000000001" y="952" width="30.06" height="20" as="geometry" />
        </mxCell>
        <mxCell id="7fQUANpCW0_2PBthWF22-16" style="edgeStyle=orthogonalEdgeStyle;rounded=0;orthogonalLoop=1;jettySize=auto;html=1;entryX=0.002;entryY=0.555;entryDx=0;entryDy=0;entryPerimeter=0;jumpStyle=arc;exitX=1;exitY=0.5;exitDx=0;exitDy=0;" parent="1" source="7fQUANpCW0_2PBthWF22-1" target="7fQUANpCW0_2PBthWF22-15" edge="1">
          <mxGeometry relative="1" as="geometry">
            <Array as="points">
              <mxPoint x="973.91" y="742" />
              <mxPoint x="973.91" y="652" />
              <mxPoint x="1153.91" y="652" />
              <mxPoint x="1153.91" y="662" />
            </Array>
          </mxGeometry>
        </mxCell>
        <mxCell id="7fQUANpCW0_2PBthWF22-17" value="" style="group" parent="1" vertex="1" connectable="0">
          <mxGeometry x="1263.9050000000002" y="689.005" width="20.00499999999988" height="66.68" as="geometry" />
        </mxCell>
        <mxCell id="7fQUANpCW0_2PBthWF22-18" value="" style="shape=trapezoid;perimeter=trapezoidPerimeter;whiteSpace=wrap;html=1;fixedSize=1;shadow=1;strokeColor=#666666;align=center;verticalAlign=middle;fontFamily=Helvetica;fontSize=18;fontColor=default;fillColor=#f5f5f5;rotation=90;" parent="7fQUANpCW0_2PBthWF22-17" vertex="1">
          <mxGeometry x="-23.335000000000036" y="23.335000000000036" width="66.67" height="20" as="geometry" />
        </mxCell>
        <mxCell id="7fQUANpCW0_2PBthWF22-19" value="&lt;font style=&quot;font-size: 9px;&quot;&gt;00&lt;/font&gt;" style="text;html=1;align=left;verticalAlign=middle;whiteSpace=wrap;rounded=0;" parent="7fQUANpCW0_2PBthWF22-17" vertex="1">
          <mxGeometry x="0.004999999999881766" y="-0.0049999999999954525" width="20" height="30" as="geometry" />
        </mxCell>
        <mxCell id="7fQUANpCW0_2PBthWF22-20" value="&lt;font style=&quot;font-size: 9px;&quot;&gt;01&lt;/font&gt;" style="text;html=1;align=left;verticalAlign=middle;whiteSpace=wrap;rounded=0;" parent="7fQUANpCW0_2PBthWF22-17" vertex="1">
          <mxGeometry x="0.004999999999881766" y="18.335000000000036" width="20" height="30" as="geometry" />
        </mxCell>
        <mxCell id="7fQUANpCW0_2PBthWF22-21" value="&lt;font style=&quot;font-size: 9px;&quot;&gt;10&lt;/font&gt;" style="text;html=1;align=left;verticalAlign=middle;whiteSpace=wrap;rounded=0;" parent="7fQUANpCW0_2PBthWF22-17" vertex="1">
          <mxGeometry y="44" width="20" height="15" as="geometry" />
        </mxCell>
        <mxCell id="7fQUANpCW0_2PBthWF22-30" value="" style="shape=waypoint;sketch=0;size=6;pointerEvents=1;points=[];fillColor=none;resizable=0;rotatable=0;perimeter=centerPerimeter;snapToPoint=1;" parent="1" vertex="1">
          <mxGeometry x="113.85" y="592" width="20" height="20" as="geometry" />
        </mxCell>
        <mxCell id="7fQUANpCW0_2PBthWF22-33" value="" style="shape=waypoint;sketch=0;size=6;pointerEvents=1;points=[];fillColor=none;resizable=0;rotatable=0;perimeter=centerPerimeter;snapToPoint=1;" parent="1" vertex="1">
          <mxGeometry x="603.85" y="522" width="20" height="20" as="geometry" />
        </mxCell>
        <mxCell id="7fQUANpCW0_2PBthWF22-34" value="" style="shape=waypoint;sketch=0;size=6;pointerEvents=1;points=[];fillColor=none;resizable=0;rotatable=0;perimeter=centerPerimeter;snapToPoint=1;" parent="1" vertex="1">
          <mxGeometry x="613.85" y="522" width="20" height="20" as="geometry" />
        </mxCell>
        <mxCell id="7fQUANpCW0_2PBthWF22-39" value="" style="shape=waypoint;sketch=0;size=6;pointerEvents=1;points=[];fillColor=none;resizable=0;rotatable=0;perimeter=centerPerimeter;snapToPoint=1;" parent="1" vertex="1">
          <mxGeometry x="873.91" y="302" width="20" height="20" as="geometry" />
        </mxCell>
        <mxCell id="7fQUANpCW0_2PBthWF22-40" value="" style="shape=waypoint;sketch=0;size=6;pointerEvents=1;points=[];fillColor=none;resizable=0;rotatable=0;perimeter=centerPerimeter;snapToPoint=1;" parent="1" vertex="1">
          <mxGeometry x="853.91" y="322" width="20" height="20" as="geometry" />
        </mxCell>
        <mxCell id="7fQUANpCW0_2PBthWF22-45" value="" style="shape=waypoint;sketch=0;size=6;pointerEvents=1;points=[];fillColor=none;resizable=0;rotatable=0;perimeter=centerPerimeter;snapToPoint=1;" parent="1" vertex="1">
          <mxGeometry x="963.86" y="730.68" width="20" height="20" as="geometry" />
        </mxCell>
        <mxCell id="7fQUANpCW0_2PBthWF22-46" value="" style="shape=waypoint;sketch=0;size=6;pointerEvents=1;points=[];fillColor=none;resizable=0;rotatable=0;perimeter=centerPerimeter;snapToPoint=1;" parent="1" vertex="1">
          <mxGeometry x="1483.91" y="712" width="20" height="20" as="geometry" />
        </mxCell>
        <mxCell id="7fQUANpCW0_2PBthWF22-50" value="" style="shape=waypoint;sketch=0;size=6;pointerEvents=1;points=[];fillColor=none;resizable=0;rotatable=0;perimeter=centerPerimeter;snapToPoint=1;" parent="1" vertex="1">
          <mxGeometry x="563.91" y="952" width="20" height="20" as="geometry" />
        </mxCell>
        <mxCell id="hefrhl2iVMpB-7Aj1aw6-33" style="edgeStyle=orthogonalEdgeStyle;rounded=0;orthogonalLoop=1;jettySize=auto;html=1;entryX=0;entryY=0.5;entryDx=0;entryDy=0;" edge="1" parent="1" source="R418lhbPfAe_eccTZUrx-7" target="7fQUANpCW0_2PBthWF22-21">
          <mxGeometry relative="1" as="geometry">
            <Array as="points">
              <mxPoint x="1233.91" y="741" />
              <mxPoint x="1263.91" y="741" />
            </Array>
          </mxGeometry>
        </mxCell>
        <mxCell id="R418lhbPfAe_eccTZUrx-7" value="" style="shape=waypoint;sketch=0;size=6;pointerEvents=1;points=[];fillColor=none;resizable=0;rotatable=0;perimeter=centerPerimeter;snapToPoint=1;" parent="1" vertex="1">
          <mxGeometry x="1223.91" y="872" width="20" height="20" as="geometry" />
        </mxCell>
        <mxCell id="R418lhbPfAe_eccTZUrx-9" value="" style="shape=waypoint;sketch=0;size=6;pointerEvents=1;points=[];fillColor=none;resizable=0;rotatable=0;perimeter=centerPerimeter;snapToPoint=1;" parent="1" vertex="1">
          <mxGeometry x="603.85" y="482" width="20" height="20" as="geometry" />
        </mxCell>
        <mxCell id="7fQUANpCW0_2PBthWF22-37" value="" style="shape=waypoint;sketch=0;size=6;pointerEvents=1;points=[];fillColor=none;resizable=0;rotatable=0;perimeter=centerPerimeter;snapToPoint=1;" parent="1" vertex="1">
          <mxGeometry x="563.91" y="432" width="20" height="20" as="geometry" />
        </mxCell>
        <mxCell id="jGIxOcGe_lyUybQSf8QV-2" style="edgeStyle=orthogonalEdgeStyle;rounded=0;orthogonalLoop=1;jettySize=auto;html=1;entryX=0;entryY=0.5;entryDx=0;entryDy=0;" parent="1" source="7fQUANpCW0_2PBthWF22-33" target="jGIxOcGe_lyUybQSf8QV-1" edge="1">
          <mxGeometry relative="1" as="geometry">
            <Array as="points">
              <mxPoint x="613.91" y="228" />
            </Array>
          </mxGeometry>
        </mxCell>
        <mxCell id="zFS1pn2A8cmfrVWvFFyQ-9" style="edgeStyle=orthogonalEdgeStyle;rounded=0;orthogonalLoop=1;jettySize=auto;html=1;entryX=0;entryY=0.5;entryDx=0;entryDy=0;jumpStyle=arc;jumpSize=6;" parent="1" source="7fQUANpCW0_2PBthWF22-34" target="-hvyRLRQOOJ3VwnVLbOB-64" edge="1">
          <mxGeometry relative="1" as="geometry">
            <mxPoint x="983.85" y="492" as="targetPoint" />
            <Array as="points">
              <mxPoint x="623.91" y="502" />
            </Array>
          </mxGeometry>
        </mxCell>
        <mxCell id="q9rqpO51LhmBKndgSOn--25" style="edgeStyle=orthogonalEdgeStyle;rounded=0;orthogonalLoop=1;jettySize=auto;html=1;entryX=0;entryY=0.5;entryDx=0;entryDy=0;jumpStyle=arc;" parent="1" source="-hvyRLRQOOJ3VwnVLbOB-59" target="-hvyRLRQOOJ3VwnVLbOB-61" edge="1">
          <mxGeometry relative="1" as="geometry">
            <Array as="points">
              <mxPoint x="953.91" y="212" />
              <mxPoint x="953.91" y="479" />
            </Array>
            <mxPoint x="983.85" y="462" as="targetPoint" />
          </mxGeometry>
        </mxCell>
        <mxCell id="zFS1pn2A8cmfrVWvFFyQ-45" style="edgeStyle=orthogonalEdgeStyle;rounded=0;orthogonalLoop=1;jettySize=auto;html=1;entryX=0.002;entryY=0.445;entryDx=0;entryDy=0;entryPerimeter=0;jumpStyle=arc;" parent="1" source="JqTOLJbfiFGYhZ1s0W8t-16" target="7fQUANpCW0_2PBthWF22-13" edge="1">
          <mxGeometry relative="1" as="geometry">
            <Array as="points">
              <mxPoint x="913.91" y="683" />
              <mxPoint x="913.91" y="642" />
              <mxPoint x="1153.91" y="642" />
              <mxPoint x="1153.91" y="622" />
            </Array>
            <mxPoint x="1183.91" y="622" as="targetPoint" />
          </mxGeometry>
        </mxCell>
        <mxCell id="zFS1pn2A8cmfrVWvFFyQ-28" style="edgeStyle=orthogonalEdgeStyle;rounded=0;orthogonalLoop=1;jettySize=auto;html=1;entryX=0;entryY=0.5;entryDx=0;entryDy=0;jumpStyle=arc;" parent="1" source="0RyyWnerKbfPe0gcl8zv-8" edge="1">
          <mxGeometry relative="1" as="geometry">
            <Array as="points">
              <mxPoint x="123.91" y="602" />
              <mxPoint x="123.91" y="1062" />
              <mxPoint x="943.91" y="1062" />
              <mxPoint x="943.91" y="1092" />
              <mxPoint x="1173.91" y="1092" />
              <mxPoint x="1173.91" y="642" />
            </Array>
            <mxPoint x="1193.91" y="642" as="targetPoint" />
          </mxGeometry>
        </mxCell>
        <mxCell id="q9rqpO51LhmBKndgSOn--12" style="edgeStyle=orthogonalEdgeStyle;rounded=0;orthogonalLoop=1;jettySize=auto;html=1;entryX=0;entryY=0.5;entryDx=0;entryDy=0;jumpStyle=arc;" parent="1" source="q9rqpO51LhmBKndgSOn--2" target="q9rqpO51LhmBKndgSOn--5" edge="1">
          <mxGeometry relative="1" as="geometry" />
        </mxCell>
        <mxCell id="zFS1pn2A8cmfrVWvFFyQ-10" style="edgeStyle=orthogonalEdgeStyle;rounded=0;orthogonalLoop=1;jettySize=auto;html=1;entryX=0;entryY=0.5;entryDx=0;entryDy=0;jumpStyle=arc;jumpSize=6;exitX=1;exitY=0.5;exitDx=0;exitDy=0;" parent="1" source="-hvyRLRQOOJ3VwnVLbOB-12" target="-hvyRLRQOOJ3VwnVLbOB-65" edge="1">
          <mxGeometry relative="1" as="geometry">
            <Array as="points">
              <mxPoint x="543.91" y="529" />
              <mxPoint x="543.91" y="542" />
              <mxPoint x="673.91" y="542" />
              <mxPoint x="673.91" y="521" />
            </Array>
          </mxGeometry>
        </mxCell>
        <mxCell id="BtpwSkirMHUlfhhFMKDF-14" style="edgeStyle=orthogonalEdgeStyle;rounded=0;orthogonalLoop=1;jettySize=auto;html=1;entryX=0;entryY=0.5;entryDx=0;entryDy=0;jumpStyle=arc;jumpSize=6;" parent="1" source="R418lhbPfAe_eccTZUrx-9" target="BtpwSkirMHUlfhhFMKDF-6" edge="1">
          <mxGeometry relative="1" as="geometry">
            <Array as="points">
              <mxPoint x="913.91" y="492" />
              <mxPoint x="913.91" y="422" />
              <mxPoint x="1493.91" y="422" />
              <mxPoint x="1493.91" y="202" />
            </Array>
          </mxGeometry>
        </mxCell>
        <mxCell id="s6hKSkpy---ewfnxM8lV-23" style="edgeStyle=orthogonalEdgeStyle;rounded=0;orthogonalLoop=1;jettySize=auto;html=1;entryX=0;entryY=0.5;entryDx=0;entryDy=0;jumpStyle=arc;jumpSize=6;exitX=1;exitY=0.5;exitDx=0;exitDy=0;" parent="1" source="F4LApp7SRapzV72RJLrX-85" target="jQQxH6LwXFBK_Qau7PEY-27" edge="1">
          <mxGeometry relative="1" as="geometry">
            <Array as="points">
              <mxPoint x="1493.91" y="722" />
              <mxPoint x="1493.91" y="442" />
              <mxPoint x="133.91" y="442" />
              <mxPoint x="133.91" y="362" />
            </Array>
            <mxPoint x="164.85" y="372" as="targetPoint" />
          </mxGeometry>
        </mxCell>
        <mxCell id="JPoRV0-0kWKYk73e9sCu-16" value="to PCC" style="edgeLabel;html=1;align=center;verticalAlign=middle;resizable=0;points=[];" parent="s6hKSkpy---ewfnxM8lV-23" vertex="1" connectable="0">
          <mxGeometry x="-0.9114" y="1" relative="1" as="geometry">
            <mxPoint x="1" y="-10" as="offset" />
          </mxGeometry>
        </mxCell>
        <mxCell id="R418lhbPfAe_eccTZUrx-2" style="edgeStyle=orthogonalEdgeStyle;rounded=0;orthogonalLoop=1;jettySize=auto;html=1;entryX=1;entryY=0.5;entryDx=0;entryDy=0;" parent="1" source="7fQUANpCW0_2PBthWF22-37" target="wTCf3CvT70fc92s2WAtQ-11" edge="1">
          <mxGeometry relative="1" as="geometry">
            <Array as="points">
              <mxPoint x="573.91" y="402" />
            </Array>
          </mxGeometry>
        </mxCell>
        <mxCell id="laC3dYbV331lfGwgBf-x-13" style="edgeStyle=orthogonalEdgeStyle;rounded=0;orthogonalLoop=1;jettySize=auto;html=1;entryX=0.25;entryY=0;entryDx=0;entryDy=0;exitX=1;exitY=0.5;exitDx=0;exitDy=0;jumpStyle=arc;" parent="1" source="JqTOLJbfiFGYhZ1s0W8t-17" edge="1">
          <mxGeometry relative="1" as="geometry">
            <Array as="points" />
            <mxPoint x="801.6800000000001" y="702.004048582996" as="sourcePoint" />
            <mxPoint x="1263.85" y="702" as="targetPoint" />
          </mxGeometry>
        </mxCell>
        <mxCell id="BtpwSkirMHUlfhhFMKDF-16" style="edgeStyle=orthogonalEdgeStyle;rounded=0;orthogonalLoop=1;jettySize=auto;html=1;entryX=0;entryY=0.5;entryDx=0;entryDy=0;jumpStyle=arc;" parent="1" source="7fQUANpCW0_2PBthWF22-43" target="BtpwSkirMHUlfhhFMKDF-8" edge="1">
          <mxGeometry relative="1" as="geometry">
            <Array as="points">
              <mxPoint x="833.91" y="692" />
              <mxPoint x="1233.91" y="692" />
              <mxPoint x="1233.91" y="522" />
              <mxPoint x="1473.91" y="522" />
              <mxPoint x="1473.91" y="162" />
            </Array>
            <mxPoint x="763.91" y="892" as="sourcePoint" />
          </mxGeometry>
        </mxCell>
        <mxCell id="laC3dYbV331lfGwgBf-x-34" style="edgeStyle=orthogonalEdgeStyle;rounded=0;orthogonalLoop=1;jettySize=auto;html=1;entryX=0.5;entryY=0.433;entryDx=0;entryDy=0;entryPerimeter=0;exitX=1;exitY=0.5;exitDx=0;exitDy=0;jumpStyle=arc;" parent="1" source="laC3dYbV331lfGwgBf-x-33" edge="1">
          <mxGeometry relative="1" as="geometry">
            <mxPoint x="793.85" y="268.25101214574903" as="sourcePoint" />
            <mxPoint x="1273.91" y="698.99" as="targetPoint" />
          </mxGeometry>
        </mxCell>
        <mxCell id="zFS1pn2A8cmfrVWvFFyQ-17" style="edgeStyle=orthogonalEdgeStyle;rounded=0;orthogonalLoop=1;jettySize=auto;html=1;entryX=0;entryY=0.5;entryDx=0;entryDy=0;jumpStyle=arc;flowAnimation=0;shadow=0;" parent="1" source="F4LApp7SRapzV72RJLrX-92" target="JqTOLJbfiFGYhZ1s0W8t-13" edge="1">
          <mxGeometry relative="1" as="geometry">
            <Array as="points">
              <mxPoint x="1673.91" y="912" />
              <mxPoint x="1673.91" y="1012" />
              <mxPoint x="1183.91" y="1012" />
              <mxPoint x="1183.91" y="1082" />
              <mxPoint x="963.91" y="1082" />
              <mxPoint x="963.91" y="1032" />
              <mxPoint x="653.91" y="1032" />
              <mxPoint x="653.91" y="789" />
            </Array>
          </mxGeometry>
        </mxCell>
        <mxCell id="hefrhl2iVMpB-7Aj1aw6-46" style="edgeStyle=orthogonalEdgeStyle;rounded=0;orthogonalLoop=1;jettySize=auto;html=1;entryX=0;entryY=0.5;entryDx=0;entryDy=0;jumpStyle=arc;" edge="1" parent="1" source="wyz3YsZ-V2g4d5ax0XK7-1" target="jGIxOcGe_lyUybQSf8QV-23">
          <mxGeometry relative="1" as="geometry" />
        </mxCell>
        <mxCell id="wyz3YsZ-V2g4d5ax0XK7-1" value="" style="shape=waypoint;sketch=0;size=6;pointerEvents=1;points=[];fillColor=none;resizable=0;rotatable=0;perimeter=centerPerimeter;snapToPoint=1;" parent="1" vertex="1">
          <mxGeometry x="563.91" y="881.63" width="20" height="20" as="geometry" />
        </mxCell>
        <mxCell id="QWSBbdvPpNymhQ5q6x3e-20" style="edgeStyle=orthogonalEdgeStyle;rounded=0;orthogonalLoop=1;jettySize=auto;html=1;entryX=0;entryY=0.5;entryDx=0;entryDy=0;exitX=0.5;exitY=0;exitDx=0;exitDy=0;jumpStyle=arc;" parent="1" source="QWSBbdvPpNymhQ5q6x3e-17" target="jGIxOcGe_lyUybQSf8QV-24" edge="1">
          <mxGeometry relative="1" as="geometry">
            <Array as="points">
              <mxPoint x="813.91" y="945" />
              <mxPoint x="813.91" y="912" />
              <mxPoint x="833.91" y="912" />
            </Array>
          </mxGeometry>
        </mxCell>
        <mxCell id="wyz3YsZ-V2g4d5ax0XK7-6" value="" style="group" parent="1" vertex="1" connectable="0">
          <mxGeometry x="173.91" y="522" width="90" height="160" as="geometry" />
        </mxCell>
        <mxCell id="0RyyWnerKbfPe0gcl8zv-1" value="I. Cache" style="whiteSpace=wrap;html=1;shadow=1;fontSize=18;fillColor=#f5f5f5;strokeColor=#666666;" parent="wyz3YsZ-V2g4d5ax0XK7-6" vertex="1">
          <mxGeometry width="90" height="160" as="geometry" />
        </mxCell>
        <mxCell id="0RyyWnerKbfPe0gcl8zv-3" value="PC" style="text;html=1;align=left;verticalAlign=middle;whiteSpace=wrap;rounded=0;" parent="wyz3YsZ-V2g4d5ax0XK7-6" vertex="1">
          <mxGeometry width="20" height="20" as="geometry" />
        </mxCell>
        <mxCell id="0RyyWnerKbfPe0gcl8zv-4" value="IC_RD" style="text;html=1;align=center;verticalAlign=middle;whiteSpace=wrap;rounded=0;" parent="wyz3YsZ-V2g4d5ax0XK7-6" vertex="1">
          <mxGeometry x="50" y="20" width="40" height="20" as="geometry" />
        </mxCell>
        <mxCell id="wyz3YsZ-V2g4d5ax0XK7-15" value="U_Addr" style="text;html=1;align=left;verticalAlign=middle;whiteSpace=wrap;rounded=0;" parent="wyz3YsZ-V2g4d5ax0XK7-6" vertex="1">
          <mxGeometry y="20" width="50" height="20" as="geometry" />
        </mxCell>
        <mxCell id="wyz3YsZ-V2g4d5ax0XK7-17" value="U_Data" style="text;html=1;align=left;verticalAlign=middle;whiteSpace=wrap;rounded=0;" parent="wyz3YsZ-V2g4d5ax0XK7-6" vertex="1">
          <mxGeometry y="40" width="50" height="20" as="geometry" />
        </mxCell>
        <mxCell id="o8jE4zu5w3KYZrWDI-N--21" value="PC" style="text;html=1;align=left;verticalAlign=middle;whiteSpace=wrap;rounded=0;" parent="wyz3YsZ-V2g4d5ax0XK7-6" vertex="1">
          <mxGeometry y="140" width="20" height="20" as="geometry" />
        </mxCell>
        <mxCell id="o8jE4zu5w3KYZrWDI-N--27" value="IC_Status" style="text;html=1;align=right;verticalAlign=middle;whiteSpace=wrap;rounded=0;" parent="wyz3YsZ-V2g4d5ax0XK7-6" vertex="1">
          <mxGeometry x="30" y="130" width="60" height="20" as="geometry" />
        </mxCell>
        <mxCell id="7fQUANpCW0_2PBthWF22-51" value="" style="shape=waypoint;sketch=0;size=6;pointerEvents=1;points=[];fillColor=none;resizable=0;rotatable=0;perimeter=centerPerimeter;snapToPoint=1;" parent="1" vertex="1">
          <mxGeometry x="113.85" y="922" width="20" height="20" as="geometry" />
        </mxCell>
        <mxCell id="wyz3YsZ-V2g4d5ax0XK7-11" value="" style="group" parent="1" vertex="1" connectable="0">
          <mxGeometry x="593.91" y="1082" width="230" height="90" as="geometry" />
        </mxCell>
        <mxCell id="wyz3YsZ-V2g4d5ax0XK7-12" value="&lt;div&gt;Memory&lt;/div&gt;&lt;div&gt;Controller&lt;/div&gt;" style="whiteSpace=wrap;html=1;shadow=1;fontSize=18;fillColor=#f5f5f5;strokeColor=#666666;" parent="wyz3YsZ-V2g4d5ax0XK7-11" vertex="1">
          <mxGeometry width="229.99999999999997" height="90" as="geometry" />
        </mxCell>
        <mxCell id="wyz3YsZ-V2g4d5ax0XK7-13" value="PC" style="text;html=1;align=left;verticalAlign=middle;whiteSpace=wrap;rounded=0;" parent="wyz3YsZ-V2g4d5ax0XK7-11" vertex="1">
          <mxGeometry y="20" width="20" height="20" as="geometry" />
        </mxCell>
        <mxCell id="o8jE4zu5w3KYZrWDI-N--5" value="UP_Addr" style="text;html=1;align=left;verticalAlign=middle;whiteSpace=wrap;rounded=0;" parent="wyz3YsZ-V2g4d5ax0XK7-11" vertex="1">
          <mxGeometry y="70" width="50" height="20" as="geometry" />
        </mxCell>
        <mxCell id="o8jE4zu5w3KYZrWDI-N--28" value="IC_Status" style="text;html=1;align=left;verticalAlign=middle;whiteSpace=wrap;rounded=0;" parent="wyz3YsZ-V2g4d5ax0XK7-11" vertex="1">
          <mxGeometry width="60" height="20" as="geometry" />
        </mxCell>
        <mxCell id="o8jE4zu5w3KYZrWDI-N--34" value="IC.IM_MUX" style="text;html=1;align=left;verticalAlign=middle;whiteSpace=wrap;rounded=0;" parent="wyz3YsZ-V2g4d5ax0XK7-11" vertex="1">
          <mxGeometry y="50" width="70" height="20" as="geometry" />
        </mxCell>
        <mxCell id="_H_bEt4n4NwgmmSnS2Ty-5" value="DC_Status" style="text;html=1;align=right;verticalAlign=middle;whiteSpace=wrap;rounded=0;" parent="wyz3YsZ-V2g4d5ax0XK7-11" vertex="1">
          <mxGeometry x="170" width="60" height="20" as="geometry" />
        </mxCell>
        <mxCell id="_H_bEt4n4NwgmmSnS2Ty-6" value="DC.DM_MUX" style="text;html=1;align=right;verticalAlign=middle;whiteSpace=wrap;rounded=0;" parent="wyz3YsZ-V2g4d5ax0XK7-11" vertex="1">
          <mxGeometry x="150" y="50" width="80" height="20" as="geometry" />
        </mxCell>
        <mxCell id="_H_bEt4n4NwgmmSnS2Ty-7" value="D.Up_Addr" style="text;html=1;align=right;verticalAlign=middle;whiteSpace=wrap;rounded=0;" parent="wyz3YsZ-V2g4d5ax0XK7-11" vertex="1">
          <mxGeometry x="160" y="70" width="70" height="20" as="geometry" />
        </mxCell>
        <mxCell id="_H_bEt4n4NwgmmSnS2Ty-25" value="Data_Addr" style="text;html=1;align=right;verticalAlign=middle;whiteSpace=wrap;rounded=0;" parent="wyz3YsZ-V2g4d5ax0XK7-11" vertex="1">
          <mxGeometry x="170" y="20" width="60" height="20" as="geometry" />
        </mxCell>
        <mxCell id="wyz3YsZ-V2g4d5ax0XK7-18" value="" style="group" parent="1" vertex="1" connectable="0">
          <mxGeometry x="173.91" y="742" width="90" height="120" as="geometry" />
        </mxCell>
        <mxCell id="wyz3YsZ-V2g4d5ax0XK7-8" value="Instruction&lt;div&gt;Memory&lt;/div&gt;" style="whiteSpace=wrap;html=1;shadow=1;fontSize=18;fillColor=#f5f5f5;strokeColor=#666666;" parent="wyz3YsZ-V2g4d5ax0XK7-18" vertex="1">
          <mxGeometry width="90" height="120" as="geometry" />
        </mxCell>
        <mxCell id="wyz3YsZ-V2g4d5ax0XK7-9" value="PC" style="text;html=1;align=left;verticalAlign=middle;whiteSpace=wrap;rounded=0;" parent="wyz3YsZ-V2g4d5ax0XK7-18" vertex="1">
          <mxGeometry width="20" height="20" as="geometry" />
        </mxCell>
        <mxCell id="wyz3YsZ-V2g4d5ax0XK7-10" value="IM_RD" style="text;html=1;align=center;verticalAlign=middle;whiteSpace=wrap;rounded=0;" parent="wyz3YsZ-V2g4d5ax0XK7-18" vertex="1">
          <mxGeometry x="50" y="8.000000000000002" width="40" height="16.000000000000004" as="geometry" />
        </mxCell>
        <mxCell id="o8jE4zu5w3KYZrWDI-N--3" value="" style="edgeStyle=orthogonalEdgeStyle;rounded=0;orthogonalLoop=1;jettySize=auto;html=1;entryX=0;entryY=0.5;entryDx=0;entryDy=0;" parent="1" source="o8jE4zu5w3KYZrWDI-N--2" target="0RyyWnerKbfPe0gcl8zv-3" edge="1">
          <mxGeometry relative="1" as="geometry" />
        </mxCell>
        <mxCell id="o8jE4zu5w3KYZrWDI-N--2" value="" style="shape=waypoint;sketch=0;size=6;pointerEvents=1;points=[];fillColor=none;resizable=0;rotatable=0;perimeter=centerPerimeter;snapToPoint=1;" parent="1" vertex="1">
          <mxGeometry x="113.85" y="522" width="20" height="20" as="geometry" />
        </mxCell>
        <mxCell id="o8jE4zu5w3KYZrWDI-N--6" style="edgeStyle=orthogonalEdgeStyle;rounded=0;orthogonalLoop=1;jettySize=auto;html=1;entryX=0;entryY=0.5;entryDx=0;entryDy=0;jumpStyle=arc;exitX=0;exitY=0.5;exitDx=0;exitDy=0;" parent="1" source="o8jE4zu5w3KYZrWDI-N--5" target="wyz3YsZ-V2g4d5ax0XK7-15" edge="1">
          <mxGeometry relative="1" as="geometry">
            <Array as="points">
              <mxPoint x="133.91" y="1162" />
              <mxPoint x="133.91" y="552" />
            </Array>
          </mxGeometry>
        </mxCell>
        <mxCell id="o8jE4zu5w3KYZrWDI-N--8" value="" style="group" parent="1" vertex="1" connectable="0">
          <mxGeometry x="183.91" y="912" width="70" height="80" as="geometry" />
        </mxCell>
        <mxCell id="s6hKSkpy---ewfnxM8lV-29" value="PCplus4" style="whiteSpace=wrap;html=1;shadow=1;fontSize=18;fillColor=#f5f5f5;strokeColor=#666666;" parent="o8jE4zu5w3KYZrWDI-N--8" vertex="1">
          <mxGeometry width="70" height="80" as="geometry" />
        </mxCell>
        <mxCell id="s6hKSkpy---ewfnxM8lV-30" value="PC" style="text;html=1;align=left;verticalAlign=middle;whiteSpace=wrap;rounded=0;" parent="o8jE4zu5w3KYZrWDI-N--8" vertex="1">
          <mxGeometry y="13.333333333333371" width="20" height="13.333333333333332" as="geometry" />
        </mxCell>
        <mxCell id="s6hKSkpy---ewfnxM8lV-31" value="PC+4" style="text;html=1;align=right;verticalAlign=middle;whiteSpace=wrap;rounded=0;" parent="o8jE4zu5w3KYZrWDI-N--8" vertex="1">
          <mxGeometry x="40" y="13.333333333333371" width="30" height="13.333333333333332" as="geometry" />
        </mxCell>
        <mxCell id="s6hKSkpy---ewfnxM8lV-32" value="4" style="text;html=1;align=left;verticalAlign=middle;whiteSpace=wrap;rounded=0;" parent="o8jE4zu5w3KYZrWDI-N--8" vertex="1">
          <mxGeometry y="60" width="10" height="20" as="geometry" />
        </mxCell>
        <mxCell id="o8jE4zu5w3KYZrWDI-N--10" value="" style="endArrow=classic;html=1;rounded=0;entryX=0;entryY=0.5;entryDx=0;entryDy=0;" parent="1" target="s6hKSkpy---ewfnxM8lV-32" edge="1">
          <mxGeometry width="50" height="50" relative="1" as="geometry">
            <mxPoint x="163.91" y="982" as="sourcePoint" />
            <mxPoint x="213.91" y="922" as="targetPoint" />
          </mxGeometry>
        </mxCell>
        <mxCell id="o8jE4zu5w3KYZrWDI-N--11" value="" style="group" parent="1" vertex="1" connectable="0">
          <mxGeometry x="753.4130243489075" y="911.6333316670834" width="20.998950052497435" height="66.6533366658332" as="geometry" />
        </mxCell>
        <mxCell id="QWSBbdvPpNymhQ5q6x3e-17" value="" style="shape=trapezoid;perimeter=trapezoidPerimeter;whiteSpace=wrap;html=1;fixedSize=1;shadow=1;strokeColor=#666666;align=center;verticalAlign=middle;fontFamily=Helvetica;fontSize=18;fontColor=default;fillColor=#f5f5f5;rotation=90;container=0;" parent="o8jE4zu5w3KYZrWDI-N--11" vertex="1">
          <mxGeometry x="-22.827193306667823" y="22.827193306667937" width="66.65333666583318" height="20.99895005249739" as="geometry" />
        </mxCell>
        <mxCell id="QWSBbdvPpNymhQ5q6x3e-18" value="00" style="text;html=1;align=left;verticalAlign=middle;whiteSpace=wrap;rounded=0;container=0;" parent="o8jE4zu5w3KYZrWDI-N--11" vertex="1">
          <mxGeometry x="-0.003024348907501917" y="10.326668332916597" width="20" height="20" as="geometry" />
        </mxCell>
        <mxCell id="QWSBbdvPpNymhQ5q6x3e-25" value="01" style="text;html=1;align=left;verticalAlign=middle;whiteSpace=wrap;rounded=0;container=0;" parent="o8jE4zu5w3KYZrWDI-N--11" vertex="1">
          <mxGeometry x="-0.003024348907501917" y="40.366668332916596" width="20" height="20" as="geometry" />
        </mxCell>
        <mxCell id="o8jE4zu5w3KYZrWDI-N--17" style="edgeStyle=orthogonalEdgeStyle;rounded=0;orthogonalLoop=1;jettySize=auto;html=1;entryX=0;entryY=0.5;entryDx=0;entryDy=0;exitX=1;exitY=0.5;exitDx=0;exitDy=0;" parent="1" source="0RyyWnerKbfPe0gcl8zv-4" target="o8jE4zu5w3KYZrWDI-N--14" edge="1">
          <mxGeometry relative="1" as="geometry">
            <Array as="points">
              <mxPoint x="273.91" y="552" />
              <mxPoint x="273.91" y="552" />
            </Array>
          </mxGeometry>
        </mxCell>
        <mxCell id="o8jE4zu5w3KYZrWDI-N--19" value="" style="shape=waypoint;sketch=0;size=6;pointerEvents=1;points=[];fillColor=none;resizable=0;rotatable=0;perimeter=centerPerimeter;snapToPoint=1;" parent="1" vertex="1">
          <mxGeometry x="263.91" y="692" width="20" height="20" as="geometry" />
        </mxCell>
        <mxCell id="o8jE4zu5w3KYZrWDI-N--24" style="edgeStyle=orthogonalEdgeStyle;rounded=0;orthogonalLoop=1;jettySize=auto;html=1;" parent="1" source="o8jE4zu5w3KYZrWDI-N--21" edge="1">
          <mxGeometry relative="1" as="geometry">
            <mxPoint x="173.91" y="752" as="targetPoint" />
            <Array as="points">
              <mxPoint x="153.91" y="672" />
              <mxPoint x="153.91" y="752" />
            </Array>
          </mxGeometry>
        </mxCell>
        <mxCell id="o8jE4zu5w3KYZrWDI-N--20" style="edgeStyle=orthogonalEdgeStyle;rounded=0;orthogonalLoop=1;jettySize=auto;html=1;entryX=0;entryY=0.5;entryDx=0;entryDy=0;jumpStyle=arc;" parent="1" source="o8jE4zu5w3KYZrWDI-N--19" target="wyz3YsZ-V2g4d5ax0XK7-17" edge="1">
          <mxGeometry relative="1" as="geometry">
            <Array as="points">
              <mxPoint x="143.91" y="702" />
              <mxPoint x="143.91" y="572" />
            </Array>
          </mxGeometry>
        </mxCell>
        <mxCell id="o8jE4zu5w3KYZrWDI-N--25" value="" style="shape=waypoint;sketch=0;size=6;pointerEvents=1;points=[];fillColor=none;resizable=0;rotatable=0;perimeter=centerPerimeter;snapToPoint=1;" parent="1" vertex="1">
          <mxGeometry x="143.91" y="742" width="20" height="20" as="geometry" />
        </mxCell>
        <mxCell id="o8jE4zu5w3KYZrWDI-N--37" value="" style="group" parent="1" vertex="1" connectable="0">
          <mxGeometry x="1043.91" y="662" width="129.95000000000005" height="200" as="geometry" />
        </mxCell>
        <mxCell id="3a17f1ce550125da-4" value="Data&lt;div&gt;Memory&lt;/div&gt;&lt;div&gt;&lt;br&gt;&lt;/div&gt;" style="whiteSpace=wrap;html=1;shadow=1;fontSize=18;fillColor=#f5f5f5;strokeColor=#666666;container=0;" parent="o8jE4zu5w3KYZrWDI-N--37" vertex="1">
          <mxGeometry y="60" width="120" height="140" as="geometry" />
        </mxCell>
        <mxCell id="F4LApp7SRapzV72RJLrX-40" value="DM_Address" style="text;html=1;align=left;verticalAlign=middle;whiteSpace=wrap;rounded=0;container=0;" parent="o8jE4zu5w3KYZrWDI-N--37" vertex="1">
          <mxGeometry y="180" width="80" height="20" as="geometry" />
        </mxCell>
        <mxCell id="F4LApp7SRapzV72RJLrX-41" value="DM_WD" style="text;html=1;align=left;verticalAlign=middle;whiteSpace=wrap;rounded=0;container=0;" parent="o8jE4zu5w3KYZrWDI-N--37" vertex="1">
          <mxGeometry y="160" width="60" height="20" as="geometry" />
        </mxCell>
        <mxCell id="F4LApp7SRapzV72RJLrX-42" value="MemWrite" style="text;html=1;align=center;verticalAlign=middle;whiteSpace=wrap;rounded=0;container=0;" parent="o8jE4zu5w3KYZrWDI-N--37" vertex="1">
          <mxGeometry y="60" width="60" height="20" as="geometry" />
        </mxCell>
        <mxCell id="F4LApp7SRapzV72RJLrX-43" value="MemRead" style="text;html=1;align=center;verticalAlign=middle;whiteSpace=wrap;rounded=0;container=0;" parent="o8jE4zu5w3KYZrWDI-N--37" vertex="1">
          <mxGeometry y="80" width="60" height="20" as="geometry" />
        </mxCell>
        <mxCell id="F4LApp7SRapzV72RJLrX-44" value="DM_RD" style="text;html=1;align=center;verticalAlign=middle;whiteSpace=wrap;rounded=0;container=0;" parent="o8jE4zu5w3KYZrWDI-N--37" vertex="1">
          <mxGeometry x="70" y="150.67" width="50" height="20" as="geometry" />
        </mxCell>
        <mxCell id="BtpwSkirMHUlfhhFMKDF-25" value="ByteMask" style="text;html=1;align=left;verticalAlign=middle;whiteSpace=wrap;rounded=0;container=0;" parent="o8jE4zu5w3KYZrWDI-N--37" vertex="1">
          <mxGeometry y="140" width="70" height="20" as="geometry" />
        </mxCell>
        <mxCell id="zFS1pn2A8cmfrVWvFFyQ-59" value="" style="triangle;whiteSpace=wrap;html=1;rotation=90;container=0;" parent="o8jE4zu5w3KYZrWDI-N--37" vertex="1">
          <mxGeometry x="75" y="55" width="10" height="20" as="geometry" />
        </mxCell>
        <mxCell id="zFS1pn2A8cmfrVWvFFyQ-60" value="" style="edgeStyle=none;orthogonalLoop=1;jettySize=auto;html=1;rounded=0;" parent="o8jE4zu5w3KYZrWDI-N--37" edge="1">
          <mxGeometry width="100" relative="1" as="geometry">
            <mxPoint x="80" as="sourcePoint" />
            <mxPoint x="80" y="60" as="targetPoint" />
            <Array as="points" />
          </mxGeometry>
        </mxCell>
        <mxCell id="zFS1pn2A8cmfrVWvFFyQ-61" value="CLK" style="edgeLabel;html=1;align=center;verticalAlign=middle;resizable=0;points=[];container=0;" parent="zFS1pn2A8cmfrVWvFFyQ-60" vertex="1" connectable="0">
          <mxGeometry x="-0.0019" relative="1" as="geometry">
            <mxPoint y="-16" as="offset" />
          </mxGeometry>
        </mxCell>
        <mxCell id="zFS1pn2A8cmfrVWvFFyQ-66" value="" style="edgeStyle=elbowEdgeStyle;rounded=0;html=1;startArrow=none;startFill=0;jettySize=auto;orthogonalLoop=1;fontSize=18;elbow=vertical;entryX=0.75;entryY=0;entryDx=0;entryDy=0;" parent="o8jE4zu5w3KYZrWDI-N--37" edge="1">
          <mxGeometry relative="1" as="geometry">
            <Array as="points">
              <mxPoint x="99.95000000000005" y="20" />
            </Array>
            <mxPoint x="100" as="sourcePoint" />
            <mxPoint x="99.95000000000005" y="60" as="targetPoint" />
          </mxGeometry>
        </mxCell>
        <mxCell id="zFS1pn2A8cmfrVWvFFyQ-67" value="RST" style="text;html=1;align=center;verticalAlign=middle;resizable=1;points=[];autosize=1;strokeColor=none;fillColor=none;movable=1;rotatable=1;deletable=1;editable=1;locked=0;connectable=1;container=0;" parent="o8jE4zu5w3KYZrWDI-N--37" vertex="1">
          <mxGeometry x="99.95000000000005" y="10" width="30" height="10" as="geometry" />
        </mxCell>
        <mxCell id="_H_bEt4n4NwgmmSnS2Ty-2" style="edgeStyle=orthogonalEdgeStyle;rounded=0;orthogonalLoop=1;jettySize=auto;html=1;entryX=0;entryY=0.5;entryDx=0;entryDy=0;" parent="1" source="_H_bEt4n4NwgmmSnS2Ty-1" target="o8jE4zu5w3KYZrWDI-N--41" edge="1">
          <mxGeometry relative="1" as="geometry" />
        </mxCell>
        <mxCell id="_H_bEt4n4NwgmmSnS2Ty-1" value="" style="shape=waypoint;sketch=0;size=6;pointerEvents=1;points=[];fillColor=none;resizable=0;rotatable=0;perimeter=centerPerimeter;snapToPoint=1;" parent="1" vertex="1">
          <mxGeometry x="993.91" y="892" width="20" height="20" as="geometry" />
        </mxCell>
        <mxCell id="_H_bEt4n4NwgmmSnS2Ty-10" style="edgeStyle=orthogonalEdgeStyle;rounded=0;orthogonalLoop=1;jettySize=auto;html=1;entryX=0;entryY=0.5;entryDx=0;entryDy=0;jumpStyle=arc;" parent="1" source="_H_bEt4n4NwgmmSnS2Ty-9" target="_H_bEt4n4NwgmmSnS2Ty-4" edge="1">
          <mxGeometry relative="1" as="geometry">
            <Array as="points">
              <mxPoint x="1193.91" y="872" />
              <mxPoint x="1013.91" y="872" />
              <mxPoint x="1013.91" y="942" />
            </Array>
          </mxGeometry>
        </mxCell>
        <mxCell id="_H_bEt4n4NwgmmSnS2Ty-9" value="" style="shape=waypoint;sketch=0;size=6;pointerEvents=1;points=[];fillColor=none;resizable=0;rotatable=0;perimeter=centerPerimeter;snapToPoint=1;" parent="1" vertex="1">
          <mxGeometry x="1183.91" y="812" width="20" height="20" as="geometry" />
        </mxCell>
        <mxCell id="_H_bEt4n4NwgmmSnS2Ty-16" value="" style="group" parent="1" vertex="1" connectable="0">
          <mxGeometry x="292.8530243489075" y="528.6733316670834" width="20.998950052497435" height="66.6533366658332" as="geometry" />
        </mxCell>
        <mxCell id="o8jE4zu5w3KYZrWDI-N--13" value="" style="shape=trapezoid;perimeter=trapezoidPerimeter;whiteSpace=wrap;html=1;fixedSize=1;shadow=1;strokeColor=#666666;align=center;verticalAlign=middle;fontFamily=Helvetica;fontSize=18;fontColor=default;fillColor=#f5f5f5;rotation=90;container=0;" parent="_H_bEt4n4NwgmmSnS2Ty-16" vertex="1">
          <mxGeometry x="-22.827193306667823" y="22.827193306667937" width="66.65333666583318" height="20.99895005249739" as="geometry" />
        </mxCell>
        <mxCell id="o8jE4zu5w3KYZrWDI-N--14" value="00" style="text;html=1;align=left;verticalAlign=middle;whiteSpace=wrap;rounded=0;container=0;" parent="_H_bEt4n4NwgmmSnS2Ty-16" vertex="1">
          <mxGeometry x="-0.003024348907501917" y="13.326668332916597" width="20" height="20" as="geometry" />
        </mxCell>
        <mxCell id="o8jE4zu5w3KYZrWDI-N--15" value="01" style="text;html=1;align=left;verticalAlign=middle;whiteSpace=wrap;rounded=0;container=0;" parent="_H_bEt4n4NwgmmSnS2Ty-16" vertex="1">
          <mxGeometry x="-0.003024348907501917" y="33.3266683329166" width="20" height="20" as="geometry" />
        </mxCell>
        <mxCell id="_H_bEt4n4NwgmmSnS2Ty-17" value="" style="group" parent="1" vertex="1" connectable="0">
          <mxGeometry x="1273.9130243489076" y="799.3433316670835" width="20.998950052497435" height="66.6533366658332" as="geometry" />
        </mxCell>
        <mxCell id="_H_bEt4n4NwgmmSnS2Ty-18" value="" style="shape=trapezoid;perimeter=trapezoidPerimeter;whiteSpace=wrap;html=1;fixedSize=1;shadow=1;strokeColor=#666666;align=center;verticalAlign=middle;fontFamily=Helvetica;fontSize=18;fontColor=default;fillColor=#f5f5f5;rotation=90;container=0;" parent="_H_bEt4n4NwgmmSnS2Ty-17" vertex="1">
          <mxGeometry x="-22.827193306667823" y="22.827193306667937" width="66.65333666583318" height="20.99895005249739" as="geometry" />
        </mxCell>
        <mxCell id="_H_bEt4n4NwgmmSnS2Ty-19" value="01" style="text;html=1;align=left;verticalAlign=middle;whiteSpace=wrap;rounded=0;container=0;" parent="_H_bEt4n4NwgmmSnS2Ty-17" vertex="1">
          <mxGeometry x="0.4969756510924981" y="13.326668332916597" width="20" height="20" as="geometry" />
        </mxCell>
        <mxCell id="_H_bEt4n4NwgmmSnS2Ty-20" value="00" style="text;html=1;align=left;verticalAlign=middle;whiteSpace=wrap;rounded=0;container=0;" parent="_H_bEt4n4NwgmmSnS2Ty-17" vertex="1">
          <mxGeometry x="0.4969756510924981" y="33.3266683329166" width="20" height="20" as="geometry" />
        </mxCell>
        <mxCell id="zFS1pn2A8cmfrVWvFFyQ-41" style="edgeStyle=orthogonalEdgeStyle;rounded=0;orthogonalLoop=1;jettySize=auto;html=1;entryX=0;entryY=0.5;entryDx=0;entryDy=0;jumpStyle=arc;" parent="1" source="7fQUANpCW0_2PBthWF22-49" target="F4LApp7SRapzV72RJLrX-40" edge="1">
          <mxGeometry relative="1" as="geometry">
            <Array as="points">
              <mxPoint x="1353.91" y="762" />
              <mxPoint x="1353.91" y="1042" />
              <mxPoint x="1003.91" y="1042" />
              <mxPoint x="1003.91" y="852" />
            </Array>
            <mxPoint x="1403.91" y="752" as="sourcePoint" />
          </mxGeometry>
        </mxCell>
        <mxCell id="zFS1pn2A8cmfrVWvFFyQ-75" value="to DM" style="edgeLabel;html=1;align=center;verticalAlign=middle;resizable=0;points=[];" parent="zFS1pn2A8cmfrVWvFFyQ-41" vertex="1" connectable="0">
          <mxGeometry x="-0.9337" y="-2" relative="1" as="geometry">
            <mxPoint x="-5" y="42" as="offset" />
          </mxGeometry>
        </mxCell>
        <mxCell id="09E98BjTh2XKiK8LabDe-3" value="" style="shape=waypoint;sketch=0;size=6;pointerEvents=1;points=[];fillColor=none;resizable=0;rotatable=0;perimeter=centerPerimeter;snapToPoint=1;" parent="1" vertex="1">
          <mxGeometry x="1343.8500000000001" y="1032" width="20" height="20" as="geometry" />
        </mxCell>
        <mxCell id="zFS1pn2A8cmfrVWvFFyQ-36" style="edgeStyle=orthogonalEdgeStyle;rounded=0;orthogonalLoop=1;jettySize=auto;html=1;exitX=0.598;exitY=0.983;exitDx=0;exitDy=0;entryX=0;entryY=0.5;entryDx=0;entryDy=0;jumpStyle=arc;jumpSize=6;exitPerimeter=0;" parent="1" source="laC3dYbV331lfGwgBf-x-17" target="7fQUANpCW0_2PBthWF22-20" edge="1">
          <mxGeometry relative="1" as="geometry">
            <Array as="points">
              <mxPoint x="573.91" y="742" />
              <mxPoint x="573.91" y="1002" />
              <mxPoint x="973.91" y="1002" />
              <mxPoint x="973.91" y="1072" />
              <mxPoint x="1213.91" y="1072" />
              <mxPoint x="1213.91" y="722" />
            </Array>
            <mxPoint x="1263.91" y="742" as="targetPoint" />
          </mxGeometry>
        </mxCell>
        <mxCell id="s6hKSkpy---ewfnxM8lV-34" style="edgeStyle=orthogonalEdgeStyle;rounded=0;orthogonalLoop=1;jettySize=auto;html=1;entryX=0;entryY=0.5;entryDx=0;entryDy=0;exitX=1;exitY=0.5;exitDx=0;exitDy=0;jumpStyle=arc;jumpSize=6;" parent="1" source="s6hKSkpy---ewfnxM8lV-31" target="7fQUANpCW0_2PBthWF22-2" edge="1">
          <mxGeometry relative="1" as="geometry">
            <Array as="points">
              <mxPoint x="273.91" y="932" />
              <mxPoint x="273.91" y="992" />
              <mxPoint x="953.91" y="992" />
              <mxPoint x="953.91" y="1062" />
              <mxPoint x="1493.91" y="1062" />
              <mxPoint x="1493.91" y="962" />
            </Array>
          </mxGeometry>
        </mxCell>
        <mxCell id="QWSBbdvPpNymhQ5q6x3e-26" style="edgeStyle=orthogonalEdgeStyle;rounded=0;orthogonalLoop=1;jettySize=auto;html=1;entryX=0;entryY=0.5;entryDx=0;entryDy=0;jumpStyle=arc;exitX=0.5;exitY=1;exitDx=0;exitDy=0;" parent="1" source="F4LApp7SRapzV72RJLrX-85" target="QWSBbdvPpNymhQ5q6x3e-18" edge="1">
          <mxGeometry relative="1" as="geometry">
            <Array as="points">
              <mxPoint x="1393.91" y="1052" />
              <mxPoint x="733.91" y="1052" />
              <mxPoint x="733.91" y="932" />
            </Array>
          </mxGeometry>
        </mxCell>
        <mxCell id="QWSBbdvPpNymhQ5q6x3e-28" value="to CSR" style="edgeLabel;html=1;align=center;verticalAlign=middle;resizable=0;points=[];" parent="QWSBbdvPpNymhQ5q6x3e-26" vertex="1" connectable="0">
          <mxGeometry x="-0.4354" y="1" relative="1" as="geometry">
            <mxPoint x="12" y="-251" as="offset" />
          </mxGeometry>
        </mxCell>
        <mxCell id="zFS1pn2A8cmfrVWvFFyQ-79" style="edgeStyle=orthogonalEdgeStyle;rounded=0;orthogonalLoop=1;jettySize=auto;html=1;entryX=0;entryY=0.5;entryDx=0;entryDy=0;jumpStyle=arc;jumpSize=6;exitX=1;exitY=0.5;exitDx=0;exitDy=0;" parent="1" source="-hvyRLRQOOJ3VwnVLbOB-11" target="q9rqpO51LhmBKndgSOn--34" edge="1">
          <mxGeometry relative="1" as="geometry">
            <Array as="points">
              <mxPoint x="553.91" y="515" />
              <mxPoint x="553.91" y="532" />
              <mxPoint x="633.91" y="532" />
              <mxPoint x="633.91" y="512" />
              <mxPoint x="933.91" y="512" />
              <mxPoint x="933.91" y="302" />
            </Array>
          </mxGeometry>
        </mxCell>
        <mxCell id="QWSBbdvPpNymhQ5q6x3e-24" style="edgeStyle=orthogonalEdgeStyle;rounded=0;orthogonalLoop=1;jettySize=auto;html=1;entryX=0;entryY=0.5;entryDx=0;entryDy=0;jumpStyle=arc;jumpSize=6;" parent="1" source="7fQUANpCW0_2PBthWF22-50" target="QWSBbdvPpNymhQ5q6x3e-25" edge="1">
          <mxGeometry relative="1" as="geometry">
            <mxPoint x="733.91" y="922" as="targetPoint" />
            <Array as="points">
              <mxPoint x="573.91" y="962" />
            </Array>
          </mxGeometry>
        </mxCell>
        <mxCell id="zFS1pn2A8cmfrVWvFFyQ-16" style="edgeStyle=orthogonalEdgeStyle;rounded=0;orthogonalLoop=1;jettySize=auto;html=1;entryX=0.082;entryY=0.4;entryDx=0;entryDy=0;entryPerimeter=0;exitX=1;exitY=0.5;exitDx=0;exitDy=0;jumpStyle=arc;" parent="1" source="laC3dYbV331lfGwgBf-x-37" target="-hvyRLRQOOJ3VwnVLbOB-43" edge="1">
          <mxGeometry relative="1" as="geometry">
            <mxPoint x="1613.8500000000001" y="852" as="targetPoint" />
            <Array as="points">
              <mxPoint x="1613.8500000000001" y="362" />
            </Array>
          </mxGeometry>
        </mxCell>
        <mxCell id="BtpwSkirMHUlfhhFMKDF-20" style="edgeStyle=orthogonalEdgeStyle;rounded=0;orthogonalLoop=1;jettySize=auto;html=1;jumpStyle=arc;" parent="1" edge="1">
          <mxGeometry relative="1" as="geometry">
            <mxPoint x="1563.8500000000001" y="82" as="targetPoint" />
            <Array as="points">
              <mxPoint x="793.91" y="332" />
              <mxPoint x="1163.91" y="332" />
              <mxPoint x="1163.91" y="82" />
            </Array>
            <mxPoint x="793.91" y="332" as="sourcePoint" />
          </mxGeometry>
        </mxCell>
        <mxCell id="JPoRV0-0kWKYk73e9sCu-2" style="edgeStyle=orthogonalEdgeStyle;rounded=0;orthogonalLoop=1;jettySize=auto;html=1;entryX=0;entryY=0.5;entryDx=0;entryDy=0;exitX=1;exitY=0.5;exitDx=0;exitDy=0;jumpStyle=arc;" parent="1" source="F4LApp7SRapzV72RJLrX-44" target="_H_bEt4n4NwgmmSnS2Ty-19" edge="1">
          <mxGeometry relative="1" as="geometry">
            <Array as="points">
              <mxPoint x="1163.91" y="822" />
              <mxPoint x="1163.91" y="822" />
            </Array>
          </mxGeometry>
        </mxCell>
        <mxCell id="JPoRV0-0kWKYk73e9sCu-5" style="edgeStyle=orthogonalEdgeStyle;rounded=0;orthogonalLoop=1;jettySize=auto;html=1;entryX=0;entryY=0.5;entryDx=0;entryDy=0;exitX=1;exitY=0.5;exitDx=0;exitDy=0;" parent="1" source="_H_bEt4n4NwgmmSnS2Ty-12" target="_H_bEt4n4NwgmmSnS2Ty-20" edge="1">
          <mxGeometry relative="1" as="geometry">
            <Array as="points">
              <mxPoint x="1253.91" y="982" />
              <mxPoint x="1253.91" y="843" />
            </Array>
          </mxGeometry>
        </mxCell>
        <mxCell id="s6hKSkpy---ewfnxM8lV-12" style="edgeStyle=orthogonalEdgeStyle;rounded=0;orthogonalLoop=1;jettySize=auto;html=1;entryX=0;entryY=0.5;entryDx=0;entryDy=0;exitX=1;exitY=0.5;exitDx=0;exitDy=0;jumpStyle=arc;" parent="1" source="s6hKSkpy---ewfnxM8lV-11" target="jQQxH6LwXFBK_Qau7PEY-28" edge="1">
          <mxGeometry relative="1" as="geometry">
            <Array as="points">
              <mxPoint x="1463.91" y="182" />
              <mxPoint x="1463.91" y="92" />
              <mxPoint x="133.91" y="92" />
              <mxPoint x="133.91" y="302" />
            </Array>
          </mxGeometry>
        </mxCell>
        <mxCell id="zFS1pn2A8cmfrVWvFFyQ-14" style="edgeStyle=orthogonalEdgeStyle;rounded=0;orthogonalLoop=1;jettySize=auto;html=1;entryX=0;entryY=0.5;entryDx=0;entryDy=0;jumpStyle=arc;" parent="1" source="laC3dYbV331lfGwgBf-x-40" target="laC3dYbV331lfGwgBf-x-42" edge="1">
          <mxGeometry relative="1" as="geometry">
            <Array as="points">
              <mxPoint x="1003.91" y="185" />
              <mxPoint x="1003.91" y="185" />
            </Array>
          </mxGeometry>
        </mxCell>
        <mxCell id="JPoRV0-0kWKYk73e9sCu-13" value="" style="group" parent="1" vertex="1" connectable="0">
          <mxGeometry x="1343.8500000000001" y="602" width="80.06" height="130" as="geometry" />
        </mxCell>
        <mxCell id="-hvyRLRQOOJ3VwnVLbOB-57" value="ALU" style="whiteSpace=wrap;html=1;shadow=1;fontSize=18;fillColor=#f5f5f5;strokeColor=#666666;resizeWidth=0;comic=0;rotatable=1;treeFolding=0;collapsible=0;dropTarget=0;container=0;noLabel=0;portConstraintRotation=0;gradientColor=none;" parent="JPoRV0-0kWKYk73e9sCu-13" vertex="1">
          <mxGeometry width="80" height="130" as="geometry" />
        </mxCell>
        <mxCell id="F4LApp7SRapzV72RJLrX-6" value="ALUcontrol" style="text;html=1;align=center;verticalAlign=middle;whiteSpace=wrap;rounded=0;container=0;" parent="JPoRV0-0kWKYk73e9sCu-13" vertex="1">
          <mxGeometry x="20.01500000000008" width="40.03" height="16.25" as="geometry" />
        </mxCell>
        <mxCell id="F4LApp7SRapzV72RJLrX-85" value="ALUresult" style="text;html=1;align=right;verticalAlign=middle;whiteSpace=wrap;rounded=0;container=0;" parent="JPoRV0-0kWKYk73e9sCu-13" vertex="1">
          <mxGeometry x="20" y="110" width="60.01" height="20" as="geometry" />
        </mxCell>
        <mxCell id="laC3dYbV331lfGwgBf-x-6" value="srcA" style="text;html=1;align=left;verticalAlign=middle;whiteSpace=wrap;rounded=0;container=0;" parent="JPoRV0-0kWKYk73e9sCu-13" vertex="1">
          <mxGeometry y="20.63" width="30" height="20" as="geometry" />
        </mxCell>
        <mxCell id="laC3dYbV331lfGwgBf-x-7" value="srcB" style="text;html=1;align=left;verticalAlign=middle;whiteSpace=wrap;rounded=0;container=0;" parent="JPoRV0-0kWKYk73e9sCu-13" vertex="1">
          <mxGeometry y="40.63" width="30" height="20" as="geometry" />
        </mxCell>
        <mxCell id="laC3dYbV331lfGwgBf-x-29" value="ALUzero" style="text;html=1;align=right;verticalAlign=middle;whiteSpace=wrap;rounded=0;container=0;" parent="JPoRV0-0kWKYk73e9sCu-13" vertex="1">
          <mxGeometry x="30" y="30" width="50" height="20" as="geometry" />
        </mxCell>
        <mxCell id="JPoRV0-0kWKYk73e9sCu-17" style="edgeStyle=orthogonalEdgeStyle;rounded=0;orthogonalLoop=1;jettySize=auto;html=1;entryX=0;entryY=0.5;entryDx=0;entryDy=0;jumpStyle=arc;" parent="1" source="7fQUANpCW0_2PBthWF22-20" target="laC3dYbV331lfGwgBf-x-7" edge="1">
          <mxGeometry relative="1" as="geometry" />
        </mxCell>
        <mxCell id="jQQxH6LwXFBK_Qau7PEY-26" value="J_Target" style="text;html=1;align=left;verticalAlign=middle;whiteSpace=wrap;rounded=0;" parent="1" vertex="1">
          <mxGeometry x="173.91" y="372" width="50" height="20" as="geometry" />
        </mxCell>
        <mxCell id="hefrhl2iVMpB-7Aj1aw6-2" value="Exception&lt;div&gt;Detector&lt;/div&gt;" style="whiteSpace=wrap;html=1;shadow=1;fontSize=18;fillColor=#f5f5f5;strokeColor=#666666;container=0;" vertex="1" parent="1">
          <mxGeometry x="353.85" y="662" width="120.06" height="80" as="geometry" />
        </mxCell>
        <mxCell id="hefrhl2iVMpB-7Aj1aw6-3" value="I_RD" style="text;html=1;align=left;verticalAlign=middle;whiteSpace=wrap;rounded=0;container=0;" vertex="1" parent="1">
          <mxGeometry x="353.85" y="662" width="30" height="20" as="geometry" />
        </mxCell>
        <mxCell id="hefrhl2iVMpB-7Aj1aw6-42" style="edgeStyle=orthogonalEdgeStyle;rounded=0;orthogonalLoop=1;jettySize=auto;html=1;entryX=0;entryY=0.5;entryDx=0;entryDy=0;" edge="1" parent="1" source="hefrhl2iVMpB-7Aj1aw6-4" target="hefrhl2iVMpB-7Aj1aw6-24">
          <mxGeometry relative="1" as="geometry">
            <Array as="points">
              <mxPoint x="493.91" y="672" />
              <mxPoint x="493.91" y="762" />
              <mxPoint x="333.91" y="762" />
              <mxPoint x="333.91" y="782" />
            </Array>
          </mxGeometry>
        </mxCell>
        <mxCell id="hefrhl2iVMpB-7Aj1aw6-4" value="Trap_Status" style="text;html=1;align=right;verticalAlign=middle;whiteSpace=wrap;rounded=0;container=0;" vertex="1" parent="1">
          <mxGeometry x="403.91" y="662" width="70" height="20" as="geometry" />
        </mxCell>
        <mxCell id="hefrhl2iVMpB-7Aj1aw6-41" style="edgeStyle=orthogonalEdgeStyle;rounded=0;orthogonalLoop=1;jettySize=auto;html=1;entryX=0;entryY=0.5;entryDx=0;entryDy=0;exitX=1;exitY=0.5;exitDx=0;exitDy=0;" edge="1" parent="1" source="hefrhl2iVMpB-7Aj1aw6-11" target="hefrhl2iVMpB-7Aj1aw6-25">
          <mxGeometry relative="1" as="geometry">
            <Array as="points">
              <mxPoint x="483.91" y="732" />
              <mxPoint x="483.91" y="752" />
              <mxPoint x="323.91" y="752" />
              <mxPoint x="323.91" y="802" />
            </Array>
          </mxGeometry>
        </mxCell>
        <mxCell id="hefrhl2iVMpB-7Aj1aw6-11" value="Cause_code" style="text;html=1;align=right;verticalAlign=middle;whiteSpace=wrap;rounded=0;container=0;" vertex="1" parent="1">
          <mxGeometry x="393.85" y="722" width="80" height="20" as="geometry" />
        </mxCell>
        <mxCell id="hefrhl2iVMpB-7Aj1aw6-12" style="edgeStyle=orthogonalEdgeStyle;rounded=0;orthogonalLoop=1;jettySize=auto;html=1;entryX=0;entryY=0.5;entryDx=0;entryDy=0;" edge="1" parent="1" source="o8jE4zu5w3KYZrWDI-N--13" target="-hvyRLRQOOJ3VwnVLbOB-2">
          <mxGeometry relative="1" as="geometry" />
        </mxCell>
        <mxCell id="hefrhl2iVMpB-7Aj1aw6-14" style="edgeStyle=orthogonalEdgeStyle;rounded=0;orthogonalLoop=1;jettySize=auto;html=1;entryX=0;entryY=0.5;entryDx=0;entryDy=0;" edge="1" parent="1" source="hefrhl2iVMpB-7Aj1aw6-13" target="hefrhl2iVMpB-7Aj1aw6-3">
          <mxGeometry relative="1" as="geometry">
            <Array as="points">
              <mxPoint x="333.91" y="672" />
            </Array>
          </mxGeometry>
        </mxCell>
        <mxCell id="hefrhl2iVMpB-7Aj1aw6-13" value="" style="shape=waypoint;sketch=0;size=6;pointerEvents=1;points=[];fillColor=none;resizable=0;rotatable=0;perimeter=centerPerimeter;snapToPoint=1;" vertex="1" parent="1">
          <mxGeometry x="323.91" y="552" width="20" height="20" as="geometry" />
        </mxCell>
        <mxCell id="hefrhl2iVMpB-7Aj1aw6-23" style="edgeStyle=orthogonalEdgeStyle;rounded=0;orthogonalLoop=1;jettySize=auto;html=1;entryX=0;entryY=0.5;entryDx=0;entryDy=0;" edge="1" parent="1" source="hefrhl2iVMpB-7Aj1aw6-22" target="hefrhl2iVMpB-7Aj1aw6-20">
          <mxGeometry relative="1" as="geometry">
            <Array as="points">
              <mxPoint x="323.91" y="852" />
            </Array>
          </mxGeometry>
        </mxCell>
        <mxCell id="hefrhl2iVMpB-7Aj1aw6-22" value="" style="shape=waypoint;sketch=0;size=6;pointerEvents=1;points=[];fillColor=none;resizable=0;rotatable=0;perimeter=centerPerimeter;snapToPoint=1;" vertex="1" parent="1">
          <mxGeometry x="313.85" y="872" width="20" height="20" as="geometry" />
        </mxCell>
        <mxCell id="7fQUANpCW0_2PBthWF22-43" value="" style="shape=waypoint;sketch=0;size=6;pointerEvents=1;points=[];fillColor=none;resizable=0;rotatable=0;perimeter=centerPerimeter;snapToPoint=1;" parent="1" vertex="1">
          <mxGeometry x="823.91" y="691.63" width="20" height="20" as="geometry" />
        </mxCell>
        <mxCell id="hefrhl2iVMpB-7Aj1aw6-29" value="" style="group" vertex="1" connectable="0" parent="1">
          <mxGeometry x="833.91" y="711.63" width="120" height="210" as="geometry" />
        </mxCell>
        <mxCell id="jGIxOcGe_lyUybQSf8QV-22" value="CSR&lt;br&gt;&lt;div&gt;&lt;span style=&quot;background-color: transparent;&quot;&gt;File&lt;/span&gt;&lt;/div&gt;" style="whiteSpace=wrap;html=1;shadow=1;fontSize=18;fillColor=#f5f5f5;strokeColor=#666666;container=0;" parent="hefrhl2iVMpB-7Aj1aw6-29" vertex="1">
          <mxGeometry width="120" height="210" as="geometry" />
        </mxCell>
        <mxCell id="jGIxOcGe_lyUybQSf8QV-23" value="CSR_addr" style="text;html=1;align=left;verticalAlign=middle;whiteSpace=wrap;rounded=0;container=0;" parent="hefrhl2iVMpB-7Aj1aw6-29" vertex="1">
          <mxGeometry y="170" width="60" height="20" as="geometry" />
        </mxCell>
        <mxCell id="jGIxOcGe_lyUybQSf8QV-24" value="CSR_WD" style="text;html=1;align=left;verticalAlign=middle;whiteSpace=wrap;rounded=0;container=0;" parent="hefrhl2iVMpB-7Aj1aw6-29" vertex="1">
          <mxGeometry y="190" width="60" height="20" as="geometry" />
        </mxCell>
        <mxCell id="QWSBbdvPpNymhQ5q6x3e-5" value="CSRop" style="text;html=1;align=left;verticalAlign=middle;whiteSpace=wrap;rounded=0;container=0;" parent="hefrhl2iVMpB-7Aj1aw6-29" vertex="1">
          <mxGeometry y="20" width="60" height="20" as="geometry" />
        </mxCell>
        <mxCell id="QWSBbdvPpNymhQ5q6x3e-6" value="CSR_enable" style="text;html=1;align=left;verticalAlign=middle;whiteSpace=wrap;rounded=0;container=0;" parent="hefrhl2iVMpB-7Aj1aw6-29" vertex="1">
          <mxGeometry width="70" height="20" as="geometry" />
        </mxCell>
        <mxCell id="QWSBbdvPpNymhQ5q6x3e-10" value="" style="triangle;whiteSpace=wrap;html=1;rotation=0;container=0;" parent="hefrhl2iVMpB-7Aj1aw6-29" vertex="1">
          <mxGeometry y="47.458643584811526" width="10" height="22.84961174040037" as="geometry" />
        </mxCell>
        <mxCell id="QWSBbdvPpNymhQ5q6x3e-15" value="CLK" style="text;html=1;align=left;verticalAlign=middle;whiteSpace=wrap;rounded=0;container=0;" parent="hefrhl2iVMpB-7Aj1aw6-29" vertex="1">
          <mxGeometry x="10" y="47.458643584811526" width="30" height="22.84961174040037" as="geometry" />
        </mxCell>
        <mxCell id="QWSBbdvPpNymhQ5q6x3e-16" value="RST" style="text;html=1;align=left;verticalAlign=middle;whiteSpace=wrap;rounded=0;container=0;" parent="hefrhl2iVMpB-7Aj1aw6-29" vertex="1">
          <mxGeometry y="70" width="30" height="20" as="geometry" />
        </mxCell>
        <mxCell id="7fQUANpCW0_2PBthWF22-1" value="CSR_RD" style="text;html=1;align=right;verticalAlign=middle;whiteSpace=wrap;rounded=0;container=0;" parent="hefrhl2iVMpB-7Aj1aw6-29" vertex="1">
          <mxGeometry x="60" y="22.84961174040037" width="60" height="22.84961174040037" as="geometry" />
        </mxCell>
        <mxCell id="hefrhl2iVMpB-7Aj1aw6-26" value="mtvec" style="text;html=1;align=right;verticalAlign=middle;whiteSpace=wrap;rounded=0;container=0;" vertex="1" parent="hefrhl2iVMpB-7Aj1aw6-29">
          <mxGeometry x="80" y="120" width="40" height="20" as="geometry" />
        </mxCell>
        <mxCell id="hefrhl2iVMpB-7Aj1aw6-30" value="mepc" style="text;html=1;align=left;verticalAlign=middle;whiteSpace=wrap;rounded=0;container=0;" vertex="1" parent="hefrhl2iVMpB-7Aj1aw6-29">
          <mxGeometry y="130.37" width="40" height="20" as="geometry" />
        </mxCell>
        <mxCell id="hefrhl2iVMpB-7Aj1aw6-34" value="mcause" style="text;html=1;align=left;verticalAlign=middle;whiteSpace=wrap;rounded=0;container=0;" vertex="1" parent="hefrhl2iVMpB-7Aj1aw6-29">
          <mxGeometry y="150.37" width="50" height="20" as="geometry" />
        </mxCell>
        <mxCell id="7fQUANpCW0_2PBthWF22-25" style="edgeStyle=orthogonalEdgeStyle;rounded=0;orthogonalLoop=1;jettySize=auto;html=1;entryX=0;entryY=0.5;entryDx=0;entryDy=0;jumpStyle=arc;" parent="1" source="7fQUANpCW0_2PBthWF22-45" target="F4LApp7SRapzV72RJLrX-89" edge="1">
          <mxGeometry relative="1" as="geometry">
            <Array as="points">
              <mxPoint x="973.91" y="882" />
              <mxPoint x="1233.91" y="882" />
              <mxPoint x="1233.91" y="932" />
            </Array>
          </mxGeometry>
        </mxCell>
        <mxCell id="hefrhl2iVMpB-7Aj1aw6-40" style="edgeStyle=orthogonalEdgeStyle;rounded=0;orthogonalLoop=1;jettySize=auto;html=1;entryX=0;entryY=0.5;entryDx=0;entryDy=0;jumpStyle=arc;" edge="1" parent="1" source="hefrhl2iVMpB-7Aj1aw6-35" target="hefrhl2iVMpB-7Aj1aw6-39">
          <mxGeometry relative="1" as="geometry">
            <Array as="points">
              <mxPoint x="513.91" y="802" />
              <mxPoint x="513.91" y="472" />
              <mxPoint x="153.91" y="472" />
              <mxPoint x="153.91" y="402" />
            </Array>
          </mxGeometry>
        </mxCell>
        <mxCell id="jQQxH6LwXFBK_Qau7PEY-24" value="PC" style="text;html=1;align=left;verticalAlign=middle;whiteSpace=wrap;rounded=0;" parent="1" vertex="1">
          <mxGeometry x="173.85" y="312" width="20" height="20" as="geometry" />
        </mxCell>
        <mxCell id="jQQxH6LwXFBK_Qau7PEY-25" value="Jump" style="text;html=1;align=left;verticalAlign=middle;whiteSpace=wrap;rounded=0;" parent="1" vertex="1">
          <mxGeometry x="173.85" y="272" width="40" height="20" as="geometry" />
        </mxCell>
        <mxCell id="jQQxH6LwXFBK_Qau7PEY-27" value="B_Target" style="text;html=1;align=left;verticalAlign=middle;whiteSpace=wrap;rounded=0;" parent="1" vertex="1">
          <mxGeometry x="173.85" y="352" width="60" height="20" as="geometry" />
        </mxCell>
        <mxCell id="jQQxH6LwXFBK_Qau7PEY-28" value="BTaken" style="text;html=1;align=left;verticalAlign=middle;whiteSpace=wrap;rounded=0;" parent="1" vertex="1">
          <mxGeometry x="173.85" y="292" width="50" height="20" as="geometry" />
        </mxCell>
        <mxCell id="jQQxH6LwXFBK_Qau7PEY-29" value="NextPC" style="text;html=1;align=right;verticalAlign=middle;whiteSpace=wrap;rounded=0;" parent="1" vertex="1">
          <mxGeometry x="243.85" y="312" width="50" height="20" as="geometry" />
        </mxCell>
        <mxCell id="hefrhl2iVMpB-7Aj1aw6-39" value="T_Target" style="text;html=1;align=left;verticalAlign=middle;whiteSpace=wrap;rounded=0;" vertex="1" parent="1">
          <mxGeometry x="173.85" y="392" width="50" height="20" as="geometry" />
        </mxCell>
        <mxCell id="laC3dYbV331lfGwgBf-x-15" value="imm_gen" style="whiteSpace=wrap;html=1;shadow=1;fontSize=18;fillColor=#f5f5f5;strokeColor=#666666;container=0;" parent="1" vertex="1">
          <mxGeometry x="533.91" y="662" width="80" height="80" as="geometry" />
        </mxCell>
        <mxCell id="laC3dYbV331lfGwgBf-x-16" value="imm" style="text;html=1;align=center;verticalAlign=middle;whiteSpace=wrap;rounded=0;container=0;" parent="1" vertex="1">
          <mxGeometry x="533.91" y="662" width="30" height="20" as="geometry" />
        </mxCell>
        <mxCell id="laC3dYbV331lfGwgBf-x-17" value="&lt;font style=&quot;font-size: 10px;&quot;&gt;ex-imm&lt;/font&gt;" style="text;html=1;align=right;verticalAlign=middle;whiteSpace=wrap;rounded=0;container=0;" parent="1" vertex="1">
          <mxGeometry x="553.91" y="722" width="40" height="20" as="geometry" />
        </mxCell>
        <mxCell id="hefrhl2iVMpB-7Aj1aw6-43" value="" style="group" vertex="1" connectable="0" parent="1">
          <mxGeometry x="353.85" y="772" width="120.06" height="110" as="geometry" />
        </mxCell>
        <mxCell id="hefrhl2iVMpB-7Aj1aw6-18" value="T.Handler" style="whiteSpace=wrap;html=1;shadow=1;fontSize=18;fillColor=#f5f5f5;strokeColor=#666666;container=0;" vertex="1" parent="hefrhl2iVMpB-7Aj1aw6-43">
          <mxGeometry width="120.06" height="110" as="geometry" />
        </mxCell>
        <mxCell id="hefrhl2iVMpB-7Aj1aw6-20" value="PC" style="text;html=1;align=left;verticalAlign=middle;whiteSpace=wrap;rounded=0;container=0;" vertex="1" parent="hefrhl2iVMpB-7Aj1aw6-43">
          <mxGeometry y="70" width="30" height="20" as="geometry" />
        </mxCell>
        <mxCell id="hefrhl2iVMpB-7Aj1aw6-25" value="Cause_code" style="text;html=1;align=right;verticalAlign=middle;whiteSpace=wrap;rounded=0;container=0;" vertex="1" parent="hefrhl2iVMpB-7Aj1aw6-43">
          <mxGeometry x="0.060000000000002274" y="20" width="70" height="20" as="geometry" />
        </mxCell>
        <mxCell id="hefrhl2iVMpB-7Aj1aw6-35" value="T_Target" style="text;html=1;align=right;verticalAlign=middle;whiteSpace=wrap;rounded=0;container=0;" vertex="1" parent="hefrhl2iVMpB-7Aj1aw6-43">
          <mxGeometry x="70.06" y="17.340000000000003" width="50" height="20" as="geometry" />
        </mxCell>
        <mxCell id="hefrhl2iVMpB-7Aj1aw6-36" value="mcause" style="text;html=1;align=right;verticalAlign=middle;whiteSpace=wrap;rounded=0;container=0;" vertex="1" parent="hefrhl2iVMpB-7Aj1aw6-43">
          <mxGeometry x="70.06" y="90" width="50" height="20" as="geometry" />
        </mxCell>
        <mxCell id="hefrhl2iVMpB-7Aj1aw6-24" value="Trap_Status" style="text;html=1;align=left;verticalAlign=middle;whiteSpace=wrap;rounded=0;container=0;" vertex="1" parent="hefrhl2iVMpB-7Aj1aw6-43">
          <mxGeometry width="70" height="20" as="geometry" />
        </mxCell>
        <mxCell id="hefrhl2iVMpB-7Aj1aw6-37" value="mepc" style="text;html=1;align=right;verticalAlign=middle;whiteSpace=wrap;rounded=0;container=0;" vertex="1" parent="hefrhl2iVMpB-7Aj1aw6-43">
          <mxGeometry x="80.06" y="70" width="40" height="20" as="geometry" />
        </mxCell>
        <mxCell id="hefrhl2iVMpB-7Aj1aw6-48" value="mtvec" style="text;html=1;align=left;verticalAlign=middle;whiteSpace=wrap;rounded=0;container=0;" vertex="1" parent="hefrhl2iVMpB-7Aj1aw6-43">
          <mxGeometry x="0.060000000000002274" y="90" width="40" height="20" as="geometry" />
        </mxCell>
        <mxCell id="hefrhl2iVMpB-7Aj1aw6-45" style="edgeStyle=orthogonalEdgeStyle;rounded=0;orthogonalLoop=1;jettySize=auto;html=1;entryX=0;entryY=0.5;entryDx=0;entryDy=0;jumpStyle=arc;" edge="1" parent="1" source="hefrhl2iVMpB-7Aj1aw6-36" target="hefrhl2iVMpB-7Aj1aw6-34">
          <mxGeometry relative="1" as="geometry">
            <Array as="points">
              <mxPoint x="633.91" y="872" />
              <mxPoint x="633.91" y="872" />
            </Array>
          </mxGeometry>
        </mxCell>
        <mxCell id="hefrhl2iVMpB-7Aj1aw6-47" style="edgeStyle=orthogonalEdgeStyle;rounded=0;orthogonalLoop=1;jettySize=auto;html=1;entryX=0;entryY=0.5;entryDx=0;entryDy=0;jumpStyle=arc;" edge="1" parent="1" source="hefrhl2iVMpB-7Aj1aw6-37" target="hefrhl2iVMpB-7Aj1aw6-30">
          <mxGeometry relative="1" as="geometry" />
        </mxCell>
        <mxCell id="hefrhl2iVMpB-7Aj1aw6-49" style="edgeStyle=orthogonalEdgeStyle;rounded=0;orthogonalLoop=1;jettySize=auto;html=1;entryX=0;entryY=0.5;entryDx=0;entryDy=0;" edge="1" parent="1" source="hefrhl2iVMpB-7Aj1aw6-26" target="hefrhl2iVMpB-7Aj1aw6-48">
          <mxGeometry relative="1" as="geometry">
            <Array as="points">
              <mxPoint x="963.91" y="842" />
              <mxPoint x="963.91" y="982" />
              <mxPoint x="333.91" y="982" />
              <mxPoint x="333.91" y="872" />
            </Array>
          </mxGeometry>
        </mxCell>
      </root>
    </mxGraphModel>
  </diagram>
</mxfile>
